<svg xmlns="http://www.w3.org/2000/svg" viewBox="0 0 405.87 55.78"><defs><style>.cls-1{fill:#d2d2ca;}.cls-2{fill:#8b0021;}</style></defs><g id="Signature"><rect class="cls-1" x="282.08" y="0.84" width="1.65" height="54.13"/><path class="cls-2" d="M32.29,29.4c-.17.13.2.32.17.31a3.29,3.29,0,0,0,.12,1.38c.11.18.47.3.53.14a2.55,2.55,0,0,1,.39-.57c.11-.1,0-.19-.08-.09s-.31.11-.45,0a2,2,0,0,1,0-.87s.35-.05.44-.05.06-.21,0-.21-.43,0-.45-.05a5.12,5.12,0,0,1,.09-.85c0-.17-.07-.22-.12-.07a3.12,3.12,0,0,1-.59,1m1-1.95c.21,0,.54.11.92.08s.79-.74.6-1.29-.75-.44-1.13-.56-.49-.33-.11-.58,1,.18,1.06.28.15.15.15-.05c0-.43,0-.19-.07-.6,0-.14-.11-.15-.12,0s-.18.09-.31.09a1.47,1.47,0,0,0-.83.13c-.2.12-.68.5-.41,1,.15.26,1.06.48,1.29.63a.48.48,0,0,1,.06.72,1.22,1.22,0,0,1-1.12-.09,1,1,0,0,1-.24-.51c0-.2-.19-.18-.19,0a9.62,9.62,0,0,0,.07,1c0,.15.18.1.2,0s.08-.14.18-.14m1,.6a1,1,0,0,1-.46.43l.46.38c.15-.17.28-.32.45-.48a.57.57,0,0,1-.45-.33M32,27.81a4.37,4.37,0,0,0,.32-.39c.12-.1,0-.2-.08-.1S32,27.21,32,27.2A4.08,4.08,0,0,1,31.85,26l.74-.08c.07,0,.08-.21,0-.22s-.61.07-.63,0a1.2,1.2,0,0,1,.07-.81c.08-.14,0-.28-.05-.14a2.49,2.49,0,0,1-.74.92c-.22.09-.19.14-.05.18a.35.35,0,0,1,.2.15,3.89,3.89,0,0,0,.09,1.51c.11.18.39.36.53.25M30.2,28.93a7,7,0,0,1-.54.5A1.1,1.1,0,0,1,30,30c0,.24,0,1.31,0,1.58a3.22,3.22,0,0,0,.45,0c0-.18,0-1.57,0-1.77a3,3,0,0,1,.27-.23c.09.09.31.14.31.28a6.32,6.32,0,0,1,0,1.06,1.07,1.07,0,0,0,.13.81c.11-.13.56-.45.65-.53s.05-.15-.07-.12-.16.06-.16,0-.06-.88-.07-1.34a.68.68,0,0,0-.36-.67c-.13.15-.42.33-.59.49a2.4,2.4,0,0,1-.34-.56m-1.75.32a1.93,1.93,0,0,0,.43.65,8,8,0,0,1-.79.62c-.24-.31-.37-.82.36-1.27m-.83.94a1.62,1.62,0,0,0,1.07,1.56,3.68,3.68,0,0,1,.49-.75c.14-.18,0-.23-.15-.09s-.7,0-.84-.25c.25-.2.92-.77,1.21-1a2.19,2.19,0,0,1-.54-.9c-.26.18-1.11.54-1.24,1.45M27.4,26a1.29,1.29,0,0,0,.06,1.7,1,1,0,0,0,1,.29,2.45,2.45,0,0,1,.33-.52,1.07,1.07,0,0,1-.89-.21,1.06,1.06,0,0,1-.21-1.34c.29-.44.7.19.77.27a4.14,4.14,0,0,1,.42-.41c-.16-.21-.29-.41-.4-.54A2.32,2.32,0,0,0,27.4,26m2.47-1.29a.45.45,0,0,1-.12-.25c0-.07,0-.82,0-.92s-.17-.08-.17,0a1.08,1.08,0,0,1-.11.55c-.32.5-.93.71-1.36.09a1.54,1.54,0,0,1-.19-.74,1.6,1.6,0,0,1,.2-.72.77.77,0,0,1,1.36.11,3.85,3.85,0,0,1,.09.57c0,.08.17.07.17,0s0-1.22,0-1.3-.15-.1-.15,0-.11.19-.24.15a1.76,1.76,0,0,0-1.24,0,1.5,1.5,0,0,0-.79,1.19,1.14,1.14,0,0,0,.74,1.24,1.77,1.77,0,0,0,1.33-.06c.19-.06.21.06.3.2s.27.07.16-.09m.26,2.63v.18a1,1,0,0,0-.22.08c-.13-.11-.71-.3-.33-.62.24.14.33,0,.55-.11v.47m0-.63c-.34.23-.44.22-.67-.05a.49.49,0,0,1-.05-.49c.1-.17.28-.34.37-.33a.8.8,0,0,1,.33.49,3.47,3.47,0,0,1,0,.38m0-1.26a1.34,1.34,0,0,0-.87.7,1.14,1.14,0,0,0,.08.63l.1.08c-.19.19-.38.35-.37.63a.77.77,0,0,0,.48.64,1,1,0,0,1,.61-.42.64.64,0,0,0,.21.48c.1-.11.5-.46.57-.54s0-.18-.07-.09-.2,0-.25-.09a10.78,10.78,0,0,1,.06-1.42c-.18-.2-.35-.62-.55-.6m2.18-3c.12-.12,0-.21-.11-.1l-.39-.44a3.34,3.34,0,0,1-.52.34c-.11-.13-.25-.13-.48-.32a4,4,0,0,0-.55.5c.26.08.46.1.48.33s0,1.36,0,1.58a2.25,2.25,0,0,0,.52,0c0-.17,0-1.63,0-1.8a.78.78,0,0,0,.19-.12c.09.07.25.31.38.39a3,3,0,0,0,.48-.36m.8.51c-.17-.57-.11-.77.24-1.06a1,1,0,0,0,.39.41,8.08,8.08,0,0,1-.63.65m1.14.72a.92.92,0,0,1-1.09-.55c.28-.29.76-.77,1-1-.19-.19-.27-.49-.61-.51a1.36,1.36,0,0,0-1.11,1.25,1.27,1.27,0,0,0,1.3,1.37c.21,0,.47-.28.6-.35.28-.14.18-.28-.14-.2m2-1.06-.29.24a.6.6,0,0,1-.23,0,.73.73,0,0,1-.46-.37c-.12-.15.18-.28.32-.27a1.7,1.7,0,0,1,.66.38m-.5.69a3.25,3.25,0,0,1,.49.25c.25.15.12.42-.15.55s-.77-.23-.85-.38c.1-.09.29-.25.51-.42m1.19-1a1.39,1.39,0,0,0-.87-.49,1.57,1.57,0,0,0-1.16.69c-.23.36,0,.67.35.91-.19.16-.45.42-.7.65a1.82,1.82,0,0,0,.93.36,2,2,0,0,0,1.13-.46c.47-.38.31-.79-.17-1.08l-.14,0a7.63,7.63,0,0,0,.63-.54m.57,2.77-.28-.3-.28.27v.36l.17.18h.18l.21-.2Zm-.12-2c-.11,0-.28.31.37.28.11,0,.18-.24-.37-.28m0,.41c-.12,0-.29.21.37.28.11,0,.24-.24-.37-.28M37.74,28l.24-.27c-.27-.05-.27,0-.42-.17V26.23l-.24-.37-.12,0-.55.52c-.15.14,0,.2.15.05l.28.18v1.22c0,.15.15.2.33.38Zm-1.68,2.31a.72.72,0,0,0,.58.1c0,.14,0,.27,0,.33a.47.47,0,0,0,0,.17c-.14.05-.3.08-.44.14-.11-.1-.55-.41-.16-.74m.59,0a.91.91,0,0,1-.66-.29.56.56,0,0,1,0-.41c.11-.18.11-.23.2-.23s.52.28.5.43a2.72,2.72,0,0,1,0,.5m-.78-.11a1,1,0,0,0-.34.73.71.71,0,0,0,.37.68,2.25,2.25,0,0,1,.86-.46,3,3,0,0,0,.51.41,5,5,0,0,1,.48-.45c.07-.08,0-.2-.09-.09s-.27,0-.33-.07a14.19,14.19,0,0,1-.06-1.42c-.18-.2-.48-.65-.68-.63a1.76,1.76,0,0,0-.84.6,1.22,1.22,0,0,0,.08.67l0,0m-.79-3a1,1,0,0,0,.94.73,6.06,6.06,0,0,1,.38-.59c.14-.2,0-.32-.11-.09s-.5,0-.65-.17-.33-.71-.17-.89.4-.09.71-.1.24-.2.28-.3-.25-.13-.44-.25c-.19.13-.49.39-.63.5a1.18,1.18,0,0,0-.31,1.16M35,31.06l.24-.27c-.27-.05-.14-.05-.28-.18V29.49L34.56,29l-.13,0-.55.52c-.14.13,0,.2.15.05l.36.19v1.19c0,.15.16.18.34.37Zm4.55,6.47a.91.91,0,0,0,.22-.42.59.59,0,0,0-.22-.41,4.07,4.07,0,0,1,.8.42Zm1.4-.43v0a6.5,6.5,0,0,1-1.32-.59,1.25,1.25,0,0,0-1.27.32c0,.18.17.26.67-.06a.59.59,0,0,0,.06.85,2.07,2.07,0,0,1-.55-.17c0,.17.2.23.31.3.83.35,1.37-.47,2.1-.61m5.62-7.82c-.13.13-.35.29-.56.52a.44.44,0,0,1,.4.22,6.24,6.24,0,0,1,0,1.16c0,.27.17.32.38.54a4.36,4.36,0,0,0,1-.43c0,.22.25.46.41.51.11-.12.22-.18.38-.33-.15-.11-.13-.12-.19-.33a11.27,11.27,0,0,1,0-1.29,2.51,2.51,0,0,0-.52-.57,7.26,7.26,0,0,0-.56.56c.17,0,.5.05.51.19a5.59,5.59,0,0,1,0,.92c0,.33-.88.18-.89,0s0-.87,0-1.17a1.45,1.45,0,0,0-.41-.46M47,26.77a.94.94,0,0,1,.38-.55c.14.17.28.35.5.35a.7.7,0,0,0,.49-.19c-.17-.14-.56-.56-.64-.64-.2.11-1.07.57-1.14,1.1A1.45,1.45,0,0,0,47,28.22a.66.66,0,0,0,.65.21c.16-.11.72-.66.79-.73s0-.13-.1-.06,0,.1-.14.11a1.24,1.24,0,0,1-.7,0,.94.94,0,0,1-.56-.94m-2.41-.08A1.81,1.81,0,0,1,44,28c.5-.13.57-.44.84-.8a2.39,2.39,0,0,0,.64.63,8,8,0,0,0,.65-.67,1.89,1.89,0,0,1-1-.73.48.48,0,0,1,0-.55c.1.14.79.47,1.11-.08a1.56,1.56,0,0,1-.76-.55,6.18,6.18,0,0,1-.57.53.73.73,0,0,0-.55-.43,5.53,5.53,0,0,1-.86.62c-.08,0-.05.21.06.17s.27-.18.46-.27a.85.85,0,0,1,.5.8m-.1,2.54c-.21.1.27.3.24.29a4.89,4.89,0,0,0,.07,1.76.53.53,0,0,0,.56.23c.16-.07.38-.42.44-.48s0-.19-.08-.1-.39,0-.42-.07a7.7,7.7,0,0,1,0-1.35h.43c.07,0,.07-.22,0-.22s-.39,0-.41-.08a1.33,1.33,0,0,1,.08-.64c.07-.15-.06-.22-.12-.07a1.94,1.94,0,0,1-.77.73m-1.95.36c.12-.18.19-.21.28-.21s.41.23.39.38a3.64,3.64,0,0,1,0,.52.71.71,0,0,1-.68-.17.83.83,0,0,1,0-.52m.15.82c.17.11.26,0,.54,0,0,.18,0,.34,0,.43s-.27.16-.44.25c-.14-.12-.34-.21-.09-.69m-.23-.16A1.4,1.4,0,0,0,42,31a1.06,1.06,0,0,0,.3.71,3.43,3.43,0,0,1,.9-.64c0,.22.2.25.38.39.11-.12.49-.61.58-.69s0-.17-.09-.09-.2,0-.41-.19a10.86,10.86,0,0,1,0-1.17c-.19-.2-.36-.48-.58-.46s-.72.59-.82.74a.78.78,0,0,0,.06.57s0,0,0,0m-1.85-1.89c0,.27.1,2.58.08,2.9s.22.38.44.53a3.49,3.49,0,0,1,.52-.62c.12-.1,0-.16-.05-.13a.23.23,0,0,1-.36-.18c0-.21,0-2.19,0-2.48l-.63,0m-.16-1.68A1.14,1.14,0,0,0,41.19,28a2.24,2.24,0,0,0,1.56.05c.19-.05.29-.07.28.1s.15.08.15,0v-1c0-.1-.13-.08-.13,0a.48.48,0,0,1-.13.36,1,1,0,0,1-1.66-.14c-.16-.21-.3-.5-.12-.56a5.39,5.39,0,0,1,1.1.09A4.81,4.81,0,0,1,43,27c.06,0,.15.1.15,0V26.4c0-.1-.08,0-.14,0a7.55,7.55,0,0,1-.82.17,3.83,3.83,0,0,1-1.06,0c-.18-.06-.12-.43,0-.65a1.1,1.1,0,0,1,1.75-.06.54.54,0,0,1,.11.37c0,.08.14.09.14,0s0-1.05,0-1.13-.14-.1-.14,0-.15.11-.3.07a2.77,2.77,0,0,0-1.52.26,1.56,1.56,0,0,0-.84,1.22M44,21.19a6.38,6.38,0,0,0-.95.06c-.21,0-.21.14,0,.16s.2.06.29.29a5.33,5.33,0,0,1-.43,1.58A7.79,7.79,0,0,1,42.33,22c0-.1.19-.19.28-.22s.15-.16,0-.19c-.34,0-1.55-.16-1.76-.18s-.22.17,0,.17.4-.06.61.26a15.5,15.5,0,0,1,1.19,2.76c.09-.15.85-2.42.9-2.66a.71.71,0,0,1,.43-.54c.24-.06.21-.16,0-.18m1,.41.22-.2v-.32l-.3-.31-.31.27v.37l.19.19Zm.34,3L45.8,24a.83.83,0,0,1-.62-.35V22.35l-.41-.42h-.14l-.65.58c-.06.11.11.11.19,0l.47.28,0,1.29a1.17,1.17,0,0,0,.35.5Zm2.68-2.29a5.89,5.89,0,0,1-1,0,.93.93,0,0,1,.07-.71c.07-.15-.07-.22-.12-.06a2.28,2.28,0,0,1-.89.92c-.22.09.26.3.23.29a7.72,7.72,0,0,0,.19,1.75c.08.2.3.53.45.43s.32-.51.39-.56,0-.27-.1-.17-.2-.05-.23-.16A7.33,7.33,0,0,1,47,22.62s1-.12,1.07-.12.07-.22,0-.22m1.5,2.41a1,1,0,0,0-.42.12.89.89,0,0,1-.24-1.07l-.11-.07a4.57,4.57,0,0,0,.76.35v.44a1.62,1.62,0,0,0,0,.23m0-.8a4.24,4.24,0,0,1-1-.49s0-.06,0-.16.25-.34.35-.33.59.28.58.43,0,.33,0,.55m.31,1.35.52-.58A3.3,3.3,0,0,1,50,24.3a11.83,11.83,0,0,1,0-1.36,1.09,1.09,0,0,0-.85-.38c-.31.05-.64.47-.74.61a.24.24,0,0,0,0,.3l.23.16,0,0a1.44,1.44,0,0,0-.36.84,1.5,1.5,0,0,0,.42.85,1.88,1.88,0,0,1,.85-.48.66.66,0,0,0,.29.43m0,3.1a2,2,0,0,1-.74-.75.84.84,0,0,1,.27-1.1c.32.12.7.45.73.75a1.59,1.59,0,0,1-.26,1.1m.44-.16a2.38,2.38,0,0,0,.34-1A1.33,1.33,0,0,0,49.85,26a1.69,1.69,0,0,0-1.2,1.54c0,.41.33,1.25,1,1.25a6,6,0,0,1,.67-.59m.68,2a3.81,3.81,0,0,0-.52-.45,4.48,4.48,0,0,1-.53.37,2.92,2.92,0,0,0-.5-.51c-.15.1-.56.48-.73.58.25,0,.62.09.64.33s0,1.4,0,1.62a2.43,2.43,0,0,0,.55,0c0-.18,0-1.57,0-1.73a1.6,1.6,0,0,0,.21-.13,3.83,3.83,0,0,0,.5.46l.49-.44c.13-.13,0-.21-.12-.11m0-2.55a2.13,2.13,0,0,0,.44.07c.11,0,.07-.18,0-.21a1.51,1.51,0,0,0-.39-.07c-.13,0-.19.17,0,.21m.44-.56a1.51,1.51,0,0,0-.39-.07c-.12,0-.19.18,0,.22a2.22,2.22,0,0,0,.44.06c.12,0,.08-.17,0-.21m3,29.58a8.44,8.44,0,0,1-1.31,3.25c-.47.71-.67-.67-.26-2a3.93,3.93,0,0,0,1.57-1.24m-.65.23c-1.53,1.55-3.81,1-5.61,1.82-1.64.61-2.82,2.16-4.53,2.56-.51.16-.59.42-.27.41a2.71,2.71,0,0,0,2.9.25c.56-.28,2.29-1.28,2.59-1.33a14.05,14.05,0,0,1-2.25,2.22,7.87,7.87,0,0,1-4.69.65c-.92-.19-1.63.69-1.4.67a1.25,1.25,0,0,1,1.39.38c.6.49,1.48,1.09,2.23.19a1.77,1.77,0,0,1,2.57.23c-1.19-.06-1.07,2.15-3.34,1.89-.84,0-2.69-2-3.22-1.37-.94,1.08,2,2.11.73,3.47s-2.53-1-2.53-1c.72.31,2,.51,1.47-.69a3.36,3.36,0,0,1-.68-1.79c-.1-.44-2.74,3.49-4.49,1.72a13.87,13.87,0,0,0-3.33-2.82c3.33-.29,3.84,1.08,4,1.3,1.07,1.48,2,0,2.28-.28s.84-1,.66-1a4.62,4.62,0,0,0-3.87-.25c2.36-3.33,4.2-.21,4.2-.21.26.17-.07-2-2.4-2.1-1.46-.07-2.75,1.28-3.75,1.28-.82,0-3.3-1.72-3.88-3.25,1.44,1.11,3.28,1.74,4.43,1,2.15-1.32,4.87.67,5,.43-.6-.48-2-2.37-5.68-1.29-1.44.84-2-.63-2.92-.66a2.77,2.77,0,0,1,3.06-.63c.13,0-.62-.63-1.15-.69a24.56,24.56,0,0,1-6.69-1.59s.34-.85,2.1-.24c0,0-1.57-1-1.56-2.27.05-.79.42-1.63-.17-2.28,2.38-.1.69,3.3,2.36,4.18a1.22,1.22,0,0,1,.25-1.46,2.7,2.7,0,0,0,1.79,1.68,1.41,1.41,0,0,0,.32-.38,5.79,5.79,0,0,1-.55-3.74h0c.13,0,.36.49.52.84.35.77.34,1.87,1,2.78a6.37,6.37,0,0,0,1,1.24,2.5,2.5,0,0,0,0-1.12,2.4,2.4,0,0,1,.53-2.49c.45,1.33,1.06.95,1.15,1.59a3.41,3.41,0,0,1,0,1.44c.05.95.89,1.22,1.63,1.82,1.68.94,2.8,1.45,3.53,2.65.35-2-5-2.43-4.29-6.35-.07-1.56.19-1.69-.89-2.65,2.14.07,3.31,3.67,3.42,4.33.22,1.21.93,1.27,1.91,2.85.14,0-1.75-4.2.51-7.85a6.1,6.1,0,0,1,.4,3.14,5.25,5.25,0,0,0,0,2,4.34,4.34,0,0,1,1.52-2.87c.1.84.88,2.13.14,3.52-.9,1.68-1,1.08-1,3.15a9,9,0,0,1,.93-2.22c1.3-1.67.37-2.57,1.64-4,.1.73.28.44.36,1.08.17,1.45-1.3,3-1,3s1-.39,1.18-1.49c0,0,.54,1,0,1.34a1.79,1.79,0,0,0-.95,2c.72-.88,1.71-1.86,1.54-3.11.08-.76.88-1.07,1-2.83a1.2,1.2,0,0,1,.59-.81c-.12,1,.63,2-.22,3.23.19.11.91-.95,2-.56C45.33,56,46,58.3,44.33,59.39c-.49.33-.41.7-.55.74,1.44-.09,2.56-1.86,2.75-2,1.45-1,1.77-1.16,2.35-2.8.23-.62.06-.9.87-1.74a5.64,5.64,0,0,1-.28,2.92c-.26.79-1.18,1.47-1,1.47,3.89-1.77,3.84-3,4.77-4.22a4.92,4.92,0,0,1,2.19-1.4c-.13.27-.67.71-.69,1.19A4.19,4.19,0,0,1,54,55.69c.24.31.7-.58,1.18-.13-.63.21-.91.93-1.4,1.35m-3.57-1.25a6.38,6.38,0,0,0,.17-1.07,1.48,1.48,0,0,0,0-.27s1.1.94,1.16,1a5.14,5.14,0,0,1-.77.73c-.19-.16-.6-.33-.59-.37m.34.61c-.51.46-.84.62-.73.39s.21-.46.28-.65.45.26.45.26m5-4.44a4.47,4.47,0,0,0-2,1.12,15.65,15.65,0,0,0-1-6c-.53-1.26.24,2.92.29,3.89,0,0-4.39-5.81-1.74-1.31a7.71,7.71,0,0,0,1.76,2,5.54,5.54,0,0,1-.18,1.85c-.27.22-6-7.82-2.83-2.25a33.21,33.21,0,0,0,2.66,2.82A3.72,3.72,0,0,1,51.78,55c-.06-.06-1.32-1-1.33-1.07-.1-.63-.1-1.21-.85-.77,0,0-2.81-3.37-1.51-1a3.88,3.88,0,0,0,1.1,1.33,3.94,3.94,0,0,0-.58,1.25c0,.26-2.44-2.71-1.5-.84.3.6,1.39,1.25,1.37,1.29a6.55,6.55,0,0,1-.34,1,23.49,23.49,0,0,1-2.24,2,4.55,4.55,0,0,1,1.3-2,5.45,5.45,0,0,1,.85-.51.81.81,0,0,0-.44-.62,4.28,4.28,0,0,0-1.3.08c.09-.51-.34-1.61-.33-2.82a2.18,2.18,0,0,0-1.19,1c-.12,2-.54,1.4-.93,2.84-.43-.6,0-1.47-.4-2a3.69,3.69,0,0,1-.75-2.25c.14-.08.73-.75.19-2.16-.09-2.22.87-3.07-.85-4.62.15,0,.25-1.16.25-1.16,1.27.7,1-.8,1.51-1.1.79-.47.65-.95.29-1.56,2.25.66-.1,2.24.92,2.27a1.58,1.58,0,0,0,1.55-.68c.34-.54-.06-.87.89-1.74.1-.09.35-.67-.4-.83-.17,0,0-.7,0-.7-.61.53-.8,1.27-1.77.8a1,1,0,0,0-1,.1.46.46,0,0,1,.3-.56c1.07-.37,1.33-.81,1.27-1-.14-.56-.18,0-.15-.6a2,2,0,0,1,.5-.83c.72-.9,1.24-.56,1.42-.48a2.31,2.31,0,0,1,.88-.47,4.94,4.94,0,0,1,2.93.56,2,2,0,0,0,1.32.19.44.44,0,0,1-.34.42c-.25.08-.55,0-.53.19s.36.13.57.19c1.2.34,2.76,1.45,1.74,1.21-.12,0,.73.66,1.38,1.55l2.29,2.28c-.11.13-.91,0-3.45-2.43-.36.33,3.09,3,4.51,5.84a5.73,5.73,0,0,1-2.54-1.25c-1-1.05-2.12-3.72-2.58-3.33-.06,0,1.87,3.11,2.83,4.95a8.43,8.43,0,0,1,.91,3.25C57.68,55,57,54.64,57,54.64c-1.13-3.89-1.65-8.41-3.29-10.49-.66-.83,1.75,3.65,1.85,7.68M57.3,25.38c0-.07,0-.19,0-.35s-.75-.41-1.25-.18c-.7.32-2.47,1.35-3.11,1.16V23.45a3.44,3.44,0,0,0,2.72.07A1.58,1.58,0,0,1,57.25,25c0,.16,0,.28,0,.35m-1.63,3.5c1.38-.21,1.58,1.46,1.58,1.46h0a1.36,1.36,0,0,0-1.48-.1,5.91,5.91,0,0,1-2.93,1V28.72s.29.54,2.83.16m-3.29,5.18c-2.5.18-7.69-1.29-9-1.29a6.62,6.62,0,0,0-4,1.09s0-12.69,0-13.14c0,0,3.58-1.73,6.18-.74a15.7,15.7,0,0,0,6.87.67ZM42,36a.55.55,0,0,1-.38.64,1,1,0,0,0,1.2-.54c.27,1.17-.88,1.23-1.24,1.3,0,0,.59.18.62.57.07,1,.69.9.83.82,0,.12-.22.72-.91.18-.12.12.19.31.25.8s.06,1.2.75,1.57c-.42.35-.93-.56-1-.45s.59.46-.12,2.18c-.32-.19-.14-.16-.52-.62-.28-.24-.4-.3-.16.11a3,3,0,0,1,.38,2.1c-.35-.16-.26-.44-.67-.83a2.15,2.15,0,0,0,.55,1.37,3.38,3.38,0,0,1,1,1.65,15.85,15.85,0,0,1-.2,2.21c-.35-.05-.65-1.07-.73-1a2,2,0,0,0,.7,1.63c.32,1,.19,1.46.1,1.5s-.46-1-.66-.8c.94,2.45.29,3.3,0,4-.2-.77-.29-1.35-.54-2.22-.51.41-.63,1-1.25,1.58a10.34,10.34,0,0,0-1-4S38.28,52,37.92,53a5.74,5.74,0,0,0,0,4.06c-1.15-1.69-1.28-4.83-.28-5.26.08-.22-.06-1-.28-.87A1.88,1.88,0,0,1,37,52c-.76-.23-.41-1.19-.34-1.51,1-1.22.37-1.51.32-1.48-.11.29-.2.63-.5.76-.64-1.13-.23-2.89,1-4.21,0-.49-.54.36-.93.33a2.18,2.18,0,0,1,1.94-2.65c-.32-.1-.5-.16-.58-.44.52-.08,2.14-.2,1.87-1.52a2.06,2.06,0,0,1-.62.66c-.29.18-.6.19-.76-.06.75-.26.51-1.2-.47-.92a.71.71,0,0,1-.77-.6c.22.23.67.06.92-.11a1.31,1.31,0,0,1,1.93.56s.49-1.07-1.08-1.35a1.37,1.37,0,0,0-1.55-1c-.35-1.27-1.41-.64-1.37-.07-1.13-.85,0-1.92.47-2.09.32,0,.25,1.05.8.88.14,0-.43-.71-.21-1,.5-.3.49.38.74.13a1.2,1.2,0,0,1,1-.74c1.15-.17,2,1.13,3.15.49m-3.29-2.19a9.94,9.94,0,0,0-3.68-1.08c-1.92-.13-5.81,1.45-8.79,1.24V20.54s3.4.46,4.8-.09c4.75-1.88,7.67.22,7.67.22ZM25.65,31H24V29.4h1.62Zm0-5.7H24V23.69h1.62Zm-3.52,6.18a1.43,1.43,0,0,1,0-2.86,1.43,1.43,0,0,1,0,2.86m0-5.72a1.43,1.43,0,0,1,0-2.86,1.43,1.43,0,0,1,0,2.86M34.37,39.16c-.34-.6.4-1.17.4-1.17,0,1.68,2.06.53,3.15,1.06a1.17,1.17,0,0,1,.55.61c-1.17-.83-3.33.85-4.1-.5M28.74,53.32a5.63,5.63,0,0,0,.13,1.58c.27.88.14.61-.22.31a3,3,0,0,1-.69-1c0-.27.17-.28.78-.91M24.55,41.5l0,0s-2.71,1.72-4.44.89c1.29-.73,5.76-3.65,7-4.48a1,1,0,0,0,1-.21c-.47,0-2,.27-1.23-1.15.3,1.28,2.47.1,3.25-.08,2.17-.52,2.16,1.87,2,2.86-.07.36.67.62,1,.57-.62,1.58-1.69.09-1.81.69-.05.25-.77.44-.76,1,0,.83.32.38.35,1s-.26.14-.2.81c.11,1.07,1.83-.14,2.54.15.35.14.59.47.93.4.1-.08.06-.48,0-.63,0-.34-.64-.38-.93-.84s.28-1.62.57-2c.41,2,2.24,1.37,2.51,3.48.17.6-.63,1.26,0,2.23-.48.48-1.06,2.76-.05,3.83a1.93,1.93,0,0,0,.5,2.26,3.31,3.31,0,0,0,0,2.3c-.56,0-.45-3.23-3.8-3.33-.07,0-.09.36,0,.54.41.72,1,.68.83,2.39,0,.58-.37-.1-.55-.26a1.91,1.91,0,0,1-.9-1.62,3.11,3.11,0,0,0-1.14,3.1s-.3-.84-.65-1.71c0,0,1.39-1.78,1.61-2.19,2.83-5.23-1.83,1.69-1.84,1.67A6.25,6.25,0,0,0,29.76,52a12.22,12.22,0,0,0,1.16-1.72c2.19-4.68-1.3,1.56-1.42,1.45s-.48-.55-.65-.44c0,.72-.21.62-.16,1.35A9.27,9.27,0,0,1,27,54.28s-.14-1.3-.1-1.35c.27-.34,1.35-1.53,1.57-1.88,3.58-5.79-1.68,1.39-1.69,1.33a2.53,2.53,0,0,0-.63-.93,25.15,25.15,0,0,0,1.44-2.23c2.19-4.61-1.75,2-1.79,2l-.22-.09a8.15,8.15,0,0,1,.28-2.1c.29-1.54-.5-.3-.72,2.13a2.07,2.07,0,0,0-.88.26c.12.65.27.15.54.77s-.44,2,.22,2.88c.25.34.27.28.22.51-.41,0-.66,0-.91.32A18.36,18.36,0,0,1,24,50.1a19.67,19.67,0,0,0,.24-2.74c-.15,0-2.53,6.26-3.1,7.49-1-.34.63-5.79,2.69-8.4.2-.84-1.08.84-1.85,1.51s-1.58,1.41-2.55,1.14c1.24-1.35,4.08-3.87,4.4-4.5s-1.94,1.68-4.27.86c1.51-.83,5-2.68,5-4m0,15.31a6.77,6.77,0,0,0,1.26.57c.52,1.4,0,2.77-.28,2.2a14,14,0,0,1-1-2.77M60.4,49V17.89a206.94,206.94,0,0,0-42.72,0V49C19.61,70.15,38.85,72.63,39,72.6,42.47,72,58.6,68.62,60.4,49m11.31,7.55a14.53,14.53,0,0,0,6.18,12.29,18.69,18.69,0,0,0,10.83,3,24.93,24.93,0,0,0,6.88-1,8.6,8.6,0,0,1,1.52-.45,16.88,16.88,0,0,0,2.09-6.12.88.88,0,0,0-1.13-.18A9.3,9.3,0,0,1,89,70.48c-7.14,0-12.93-5.19-12.93-14.57s5.66-13.6,12.32-13.6c6.31,0,8.26,3.49,8.92,6.53a.89.89,0,0,0,1.17-.09c-.35-2.73-.56-5.54-.61-6.57A3.43,3.43,0,0,1,96.64,42a32.74,32.74,0,0,0-7.7-1.07,18.43,18.43,0,0,0-11.75,3.8,15,15,0,0,0-5.48,11.85M84.06,17.85l0-.05,0-.05c-.07-.14-.27-.15-.33-.15a.36.36,0,0,0-.17,0l0,0,0,0c-.23.41-.33.45-1.29.45h-7.5c-.81,0-1.17-.05-1.25-.46v-.05l0,0a.34.34,0,0,0-.25-.08.63.63,0,0,0-.27.06l0,0v.06a21.57,21.57,0,0,1-.68,2.75l0,.06,0,.05a.49.49,0,0,0,.68.18l0,0,0,0a3.18,3.18,0,0,1,.78-1.24A3.5,3.5,0,0,1,75.79,19h1c.41,0,.41,0,.41.45v8.33c0,2-.12,2.11-1,2.19l-.65.05-.06,0a.41.41,0,0,0-.16.38.38.38,0,0,0,.17.34l0,0h0c1.11,0,1.78-.05,2.52-.05s1.29,0,2.37.05h0l0,0a.44.44,0,0,0,.18-.36.41.41,0,0,0-.13-.35L79.91,30c-.9-.08-1-.2-1-2.19V19.43a1.18,1.18,0,0,1,0-.4,1.1,1.1,0,0,1,.36,0h1.29a3.39,3.39,0,0,1,2,.44A2.18,2.18,0,0,1,83,20.7v0l0,0a.39.39,0,0,0,.32.14.41.41,0,0,0,.38-.2l0,0v0a11.89,11.89,0,0,1,.27-2.78M99,27.78v-6.7c0-2,0-2.11,1-2.21l.38,0,.06,0a.38.38,0,0,0,.13-.35c0-.07,0-.29-.18-.36l0,0h0c-.88,0-1.48.06-2.14.06s-1.42,0-2.19-.06h0l0,0c-.15.07-.18.29-.18.36a.38.38,0,0,0,.12.35l.41.06c.93.1,1,.22,1,2.21v2.14c0,.45,0,.45-.76.45H91.25c-.77,0-.77,0-.77-.45V21.08c0-2,.06-2.11,1-2.21l.34,0,.06,0a.38.38,0,0,0,.13-.35c0-.07,0-.29-.18-.36l0,0h0c-.82,0-1.43.06-2.09.06-.48,0-.89,0-1.34,0l-.94,0h0l0,0c-.15.07-.17.29-.18.35a.39.39,0,0,0,.13.36l0,0,.51,0c.8.06.94.23.94,2.21v6.7c0,1.94,0,2-.94,2.19l-.35.06,0,0a.49.49,0,0,0-.1.4.36.36,0,0,0,.17.29l0,0h0l.72,0c.43,0,.87,0,1.38,0,.68,0,1.26,0,2.3.05h0l0,0a.44.44,0,0,0,.18-.36.38.38,0,0,0-.13-.35L91.46,30c-.87-.1-1-.19-1-2.19V25.15c0-.45,0-.45.77-.45h5.19c.76,0,.76,0,.76.45v2.63c0,2,0,2-1,2.19l-.38.06,0,0a.45.45,0,0,0-.09.4.36.36,0,0,0,.17.29l0,0h0c.87,0,1.51-.05,2.19-.05s1.35,0,2.19.05h0l0,0c.15-.08.17-.29.18-.36a.38.38,0,0,0-.13-.35l-.5-.08c-.92-.12-1-.22-1-2.19m15.15.29v0l0-.05a.46.46,0,0,0-.42-.26.41.41,0,0,0-.24.08l0,.05a4.38,4.38,0,0,1-1.23,1.74,5.17,5.17,0,0,1-2.26.27c-1.51,0-1.9-.19-2.09-.39s-.3-.88-.3-1.84V25c0-.36,0-.36.45-.36H109a6.5,6.5,0,0,1,1.36.08c.25.07.38.24.46.61l.16.72,0,.06a.42.42,0,0,0,.34.14.39.39,0,0,0,.36-.18l0,0v0c0-.18,0-.42,0-.69s0-.72,0-1.1,0-.79,0-1.14,0-.54,0-.74v0l0,0a.39.39,0,0,0-.36-.17.44.44,0,0,0-.34.13l-.17.83c-.09.43-.19.49-.35.54a6.21,6.21,0,0,1-1.49.11H108c-.45,0-.45,0-.45-.38V19.6c0-.6,0-.6.4-.6h1.31a8.36,8.36,0,0,1,1.72.11c.83.21,1,.75,1.25,1.56l0,.11,0,0a.34.34,0,0,0,.29.12.44.44,0,0,0,.38-.17l0,0,0-.27a17.43,17.43,0,0,0-.27-2.29l0-.13-.12,0c-.2.05-1.32.05-2.41.05h-3.41c-.7,0-1.3,0-2.13-.06h0l0,0a.42.42,0,0,0-.18.35.39.39,0,0,0,.13.36l.35.06c.93.11,1,.24,1,2.21v6.7c0,2-.11,2.11-1,2.19l-.64.06,0,0a.49.49,0,0,0-.1.4.36.36,0,0,0,.17.29l0,0h0c1,0,1.68-.05,2.46-.05h1.63c1.58,0,3.17,0,4.86.05h.09l0-.09a16.09,16.09,0,0,0,.82-2.62m1.76,14.56c.26-.18.17-1-.09-1.12-1.87.09-3.35.13-5.05.13-1.87,0-3.35-.09-5.48-.13-.26.13-.35.94-.09,1.12l1.13.09c2.27.17,2.57.93,2.57,5.63v16.1c0,4.69-.09,5.14-2.52,5.58l-.74.14a.88.88,0,0,0,.09,1.12c1.69-.05,3.17-.14,5-.14,1.7,0,3.18,0,5.53.14.26-.14.35-.94.09-1.12L115.09,70c-2.43-.26-2.65-.89-2.65-5.58V58.14c0-1.34.09-1.43,2.18-1.43h12.44c2.09,0,2.18.09,2.18,1.43v6.31c0,4.69,0,5.14-2.66,5.58l-.82.14a.88.88,0,0,0,.08,1.12c1.92-.09,3.48-.14,5.27-.14s3.17,0,5.26.14c.26-.14.35-.94.09-1.12L135.41,70c-2.52-.31-2.61-.89-2.61-5.58V48.35c0-4.7.09-5.37,2.61-5.63l.92-.09c.26-.18.17-1-.09-1.12-2,.09-3.44.13-5.13.13s-3.27,0-5.27-.13c-.26.13-.35.94-.08,1.12l.82.09c2.57.26,2.66.93,2.66,5.63v5.14c0,1.39-.09,1.43-2.18,1.43H114.62c-2.09,0-2.18,0-2.18-1.43V48.35c0-4.7.09-5.37,2.61-5.63Zm20.84-23.87a.53.53,0,0,0,.1-.39.41.41,0,0,0-.17-.27l0,0h0c-.63,0-1.12.06-1.9.06s-1.37,0-2.06-.06h0l0,0a.41.41,0,0,0-.16.29.52.52,0,0,0,.09.37l0,0,.51,0c.42,0,.7.15.8.32a12.23,12.23,0,0,1,.33,3.79V25.1c0,2.19-.61,4.81-3.49,4.81-2.42,0-3.54-1.53-3.54-4.83v-4c0-2,.06-2.13,1-2.21l.47,0,0,0a.37.37,0,0,0,.12-.34.41.41,0,0,0-.17-.35l0,0h0c-.86,0-1.47.06-2.23.06s-1.38,0-2.24-.06h0l0,0a.42.42,0,0,0-.18.34.38.38,0,0,0,.12.35l0,0,.49,0c.9.08,1,.23,1,2.21v4.39c0,2.26.45,3.65,1.46,4.51A5.16,5.16,0,0,0,130.29,31a4.85,4.85,0,0,0,3.56-1.41,6.56,6.56,0,0,0,1.31-4.55V23a17.75,17.75,0,0,1,.24-3.74.93.93,0,0,1,.79-.37l.49,0Zm16.25,0a.47.47,0,0,0-.06-.69l0,0h0c-.59,0-1.07.06-1.86.06-.64,0-1.24,0-2.13-.06h-.06a.36.36,0,0,0-.2.28.46.46,0,0,0,.13.43l0,0,.35,0c.62.08.94.17,1,.31a11.6,11.6,0,0,1,.34,3.78v4c0,.18,0,.39,0,.54-.63-.67-1.29-1.43-2.1-2.37l-2.53-2.91a20.93,20.93,0,0,1-3.05-4l0-.1h-.11a4.79,4.79,0,0,1-.81.06c-.32,0-1.28,0-2-.06h0l0,0a.36.36,0,0,0-.19.28.51.51,0,0,0,.11.41l0,0,.35,0a1.74,1.74,0,0,1,1,.4,1.62,1.62,0,0,1,.37,1.25v5.55a17.53,17.53,0,0,1-.23,3.61c0,.09-.19.22-.68.29L140,30l0,0a.45.45,0,0,0-.11.35.43.43,0,0,0,.17.33l0,0h0c.64,0,1.12-.05,1.88-.05s1.23,0,2.12.05h.05l0,0a.44.44,0,0,0,.16-.28.54.54,0,0,0-.1-.39l0,0-.63-.06c-.44,0-.74-.14-.82-.28a13.38,13.38,0,0,1-.3-3.79V21.84a6.79,6.79,0,0,1,0-.94l1.2,1.44.74.9,4.21,4.92c1.4,1.63,2.07,2.44,2.31,2.8l0,.06h.08a.47.47,0,0,0,.47-.31v-.06c0-.21-.06-.95-.06-3.24V22.7a14,14,0,0,1,.26-3.52s.24-.2.91-.31l.3,0Zm-2.24,45.57V48.44c0-4.74.09-5.5,2.66-5.72l1.08-.09a.9.9,0,0,0-.08-1.12c-2.18.09-3.66.13-5.4.13s-3.31,0-5.48-.13c-.26.13-.35.94-.09,1.12l1.09.09c2.57.22,2.65,1,2.65,5.72V64.36c0,4.74-.08,5.36-2.65,5.67l-1.09.14a.89.89,0,0,0,.09,1.12c2.17-.09,3.65-.14,5.48-.14s3.22,0,5.4.14c.26-.14.34-.94.08-1.12L153.39,70c-2.57-.31-2.66-.93-2.66-5.67m9.1-36.62V21.11c0-2,.07-2.16,1-2.24l.49,0,0,0a.38.38,0,0,0,.13-.35c0-.07,0-.29-.18-.36l0,0h0c-.86,0-1.5.06-2.24.06s-1.4,0-2.28-.06h0l0,0c-.15.07-.17.29-.18.36a.38.38,0,0,0,.13.35l0,0,.49,0c.91.08,1,.23,1,2.24v6.63c0,2,0,2.11-1,2.23l-.5.06,0,0a.49.49,0,0,0-.1.4.36.36,0,0,0,.17.29l0,0h0c.92,0,1.53-.05,2.28-.05s1.34,0,2.24.05h0l0,0c.15-.08.17-.3.18-.36a.38.38,0,0,0-.13-.35l-.51-.08c-.94-.12-1-.22-1-2.23m5.57,17a15,15,0,0,0-5.49,11.85,14.53,14.53,0,0,0,6.18,12.29,18.7,18.7,0,0,0,10.84,3,24.85,24.85,0,0,0,6.87-1,8.6,8.6,0,0,1,1.52-.45,16.88,16.88,0,0,0,2.09-6.12.88.88,0,0,0-1.13-.18,9.3,9.3,0,0,1-9.09,6.39c-7.14,0-12.93-5.19-12.93-14.57s5.66-13.6,12.32-13.6c6.31,0,8.27,3.49,8.92,6.53a.89.89,0,0,0,1.17-.09c-.34-2.73-.56-5.54-.61-6.57a3.35,3.35,0,0,1-1.21-.18,32.9,32.9,0,0,0-7.71-1.07,18.38,18.38,0,0,0-11.74,3.8m11.83-25.94a.49.49,0,0,0,.1-.4.38.38,0,0,0-.16-.29l0,0h0c-.61,0-1.16.06-1.75.06s-1.4,0-1.88-.06h0l0,0a.43.43,0,0,0-.18.33.43.43,0,0,0,.13.37l0,0,.37,0c.63.07.69.21.69.21a2,2,0,0,1-.15.68c-.32.81-1.18,2.94-1.69,4.16-.13.32-.3.74-.49,1.19-.34.84-.76,1.86-1.12,2.66-.85-2-1.64-4.06-2.45-6.13a26.39,26.39,0,0,1-.89-2.56c0-.06.19-.14.73-.21l.31,0,0,0a.43.43,0,0,0,.13-.37.41.41,0,0,0-.18-.33l0,0h0c-.81,0-1.44.06-2.19.06s-1.33,0-1.87-.06h0l0,0a.46.46,0,0,0-.18.34.45.45,0,0,0,.13.36l0,0,.37,0c.71.08.95.42,1.36,1.44l3.19,8.08a22.27,22.27,0,0,1,.83,2.46v.07l.07,0a.71.71,0,0,0,.32.07.49.49,0,0,0,.28-.08l0,0,0-.05c.31-1,1.18-3.19,1.88-4.85l1-2.29a46.23,46.23,0,0,1,2-4.27,1,1,0,0,1,.83-.58l.6,0Zm12.44,9.28v0l0-.05a.46.46,0,0,0-.42-.26.41.41,0,0,0-.24.08l0,.05a4.38,4.38,0,0,1-1.23,1.74,5.17,5.17,0,0,1-2.26.27c-1.51,0-1.9-.19-2.09-.39a3.1,3.1,0,0,1-.31-1.84V25c0-.36,0-.36.46-.36h1.06a6.5,6.5,0,0,1,1.36.08c.25.07.38.24.46.61l.16.72,0,.06a.42.42,0,0,0,.34.14.39.39,0,0,0,.36-.18l0,0v0c0-.18,0-.42,0-.69s0-.72,0-1.1,0-.79,0-1.14,0-.54,0-.74v0l0,0a.4.4,0,0,0-.36-.17.44.44,0,0,0-.34.13l-.18.83c-.08.43-.18.49-.34.54a6.21,6.21,0,0,1-1.49.11h-1.06c-.46,0-.46,0-.46-.38V19.6c0-.6,0-.6.41-.6h1.31a8.41,8.41,0,0,1,1.72.11c.83.21,1,.75,1.24,1.56l0,.11,0,0a.38.38,0,0,0,.3.12.45.45,0,0,0,.38-.17l0,0,0-.27a17.43,17.43,0,0,0-.27-2.29l-.05-.13-.12,0c-.2.05-1.32.05-2.41.05h-3.41c-.7,0-1.3,0-2.13-.06h0l0,0a.42.42,0,0,0-.18.35.37.37,0,0,0,.13.36l.35.06c.92.11,1,.24,1,2.21v6.7c0,2-.11,2.11-1,2.19l-.65.06,0,0a.48.48,0,0,0-.1.4.37.37,0,0,0,.17.29l0,0h0c1,0,1.68-.05,2.46-.05h1.63c1.58,0,3.17,0,4.86.05h.09l0-.09a17.49,17.49,0,0,0,.82-2.62m9.37-4.2a2.9,2.9,0,0,1-1.78.45,6.53,6.53,0,0,1-1.15-.05,3.34,3.34,0,0,1,0-.51V19.4c0-.42,0-.45,1-.45a2.57,2.57,0,0,1,2.76,2.72,2.61,2.61,0,0,1-.85,2.2m5.47,6.93a.34.34,0,0,0,.11-.29.3.3,0,0,0-.17-.22h0a2,2,0,0,1-1.17-.48,20.12,20.12,0,0,1-3.61-4.93.48.48,0,0,1-.11-.26,3.56,3.56,0,0,0,2.3-3.22,2.9,2.9,0,0,0-1.58-2.73,6.42,6.42,0,0,0-3.09-.58c-1.66,0-3,.05-4.05.15l-.06,0a.37.37,0,0,0-.18.32A.44.44,0,0,0,193,19l0,0,.61.08c.59.07.68.2.68,2v6.69c0,2-.05,2.07-1,2.19l-.5.06,0,0a.57.57,0,0,0-.09.43.39.39,0,0,0,.17.26l0,0h0c.8,0,1.46-.05,2.26-.05s1.38,0,2.15.05h0l0,0a.43.43,0,0,0,.17-.32.41.41,0,0,0-.11-.38l0,0-.42-.06c-.93-.13-1-.22-1-2.19V25.43c0-.26,0-.26.72-.26s.93.17,1.17.53.59.93.91,1.44.63,1,.87,1.38c1.24,1.82,2.18,2.4,3.86,2.4a2.63,2.63,0,0,0,.84-.1Zm4.56-10.17a1.79,1.79,0,0,1,2-1.93,2.26,2.26,0,0,1,2.33,2l0,.06a.36.36,0,0,0,.28.11.52.52,0,0,0,.4-.18l0,0v0a8.46,8.46,0,0,0-.33-2.32l0-.1h-.09a2.31,2.31,0,0,1-.6-.1,7.12,7.12,0,0,0-1.73-.25c-2.29,0-3.83,1.34-3.83,3.35a4.16,4.16,0,0,0,2,3.32l1.72,1.16a2.68,2.68,0,0,1,1.42,2.49,1.94,1.94,0,0,1-2.12,2c-1.84,0-2.64-1.45-3-2.67l0,0a.31.31,0,0,0-.27-.13.49.49,0,0,0-.39.18l0,0v0a9,9,0,0,0,.51,2.67l0,0,0,0a5.74,5.74,0,0,0,2.9.71c2.39,0,4-1.45,4-3.59a4.29,4.29,0,0,0-2.33-3.7l-1.45-.93a2.82,2.82,0,0,1-1.48-2.17M207.3,57.87H202c-1.22,0-1.27,0-.92-1.07L203.77,49c.48-1.34.92-2.41,1-2.64h.08a26.41,26.41,0,0,1,1,2.82l2.35,7.29c.4,1.2.31,1.38-.95,1.38M218.52,70c-1.87-.22-2.43-.89-3.69-4.74l-6-18c-.65-2-1.34-4-1.91-6a.62.62,0,0,0-.65-.4,5,5,0,0,1-2.27,1.7c.14.71-.13,1.56-.74,3.17l-4.43,12.07c-1.83,5-3.05,7.92-3.83,10A2.9,2.9,0,0,1,192.42,70l-1.44.14a.9.9,0,0,0,.09,1.12c1.17-.05,2.74-.14,4.17-.14,2,0,3.4,0,4.53.14a.74.74,0,0,0,.09-1.12L198.42,70c-1-.08-1.26-.35-1.26-.89a17.07,17.07,0,0,1,1-3.71l1.52-4.7c.3-.94.56-1.07,1.65-1.07h6.57c1.31,0,1.48.13,1.79,1.12l1.91,6.08a9.34,9.34,0,0,1,.57,2.37c0,.45-.61.72-1.52.8l-1.27.14a.77.77,0,0,0,.09,1.12c1.26-.05,2.91-.14,5-.14s3.49,0,5.27.14a.9.9,0,0,0,0-1.12Zm3-42.29V21.11c0-2,.06-2.16,1-2.24l.49,0,0,0a.38.38,0,0,0,.13-.35c0-.07,0-.29-.18-.36l0,0h0c-.86,0-1.5.06-2.24.06s-1.4,0-2.28-.06h0l0,0c-.15.07-.17.29-.18.36a.38.38,0,0,0,.13.35l0,0,.49,0c.92.08,1,.21,1,2.24v6.63c0,2-.05,2.11-1,2.23l-.5.06,0,0a.45.45,0,0,0-.1.4.37.37,0,0,0,.17.29l0,0h0c.92,0,1.53-.05,2.28-.05s1.32,0,2.24.05h0l0,0c.15-.08.17-.3.18-.36a.41.41,0,0,0-.13-.35l-.52-.08c-.93-.12-1-.22-1-2.23M238,17.85V17.8l0-.05c-.06-.14-.25-.15-.33-.15a.36.36,0,0,0-.17,0h-.05l0,.05c-.23.41-.33.45-1.29.45h-7.5c-.81,0-1.17-.05-1.25-.46v-.05l0,0a.34.34,0,0,0-.25-.08.63.63,0,0,0-.27.06l-.05,0v.06a20,20,0,0,1-.68,2.75l0,.06,0,.05a.49.49,0,0,0,.68.18l0,0,0,0a3.3,3.3,0,0,1,.78-1.24,3.5,3.5,0,0,1,2.14-.43h1c.41,0,.41,0,.41.45v8.33c0,2-.11,2.11-1,2.19l-.65.05-.06,0a.41.41,0,0,0-.16.38.38.38,0,0,0,.17.34l0,0h0c1.1,0,1.77-.05,2.51-.05s1.29,0,2.37.05h0l0,0c.15-.08.17-.29.18-.36a.38.38,0,0,0-.13-.35l-.65-.08c-.9-.08-1-.2-1-2.19V19.43a1.18,1.18,0,0,1,0-.4,1.1,1.1,0,0,1,.36,0h1.29a3.39,3.39,0,0,1,2,.44,2.25,2.25,0,0,1,.4,1.26v0l0,0a.39.39,0,0,0,.33.14.4.4,0,0,0,.37-.2l0,0v0a11.94,11.94,0,0,1,.27-2.78m7.42,23.75a25.33,25.33,0,0,0-5.53-.67c-6.57,0-10.88,2.1-13.79,5.23a15.57,15.57,0,0,0-3.92,10.6,14.27,14.27,0,0,0,4,10.14c3.35,3.49,8.09,5,13.27,5a33.51,33.51,0,0,0,7.79-1.16,9.18,9.18,0,0,1,2.13-.41.37.37,0,0,0,0-.53c-.78-.32-1-1.39-1-3.18v-2.5c0-2.28,0-3.53,1.87-3.76l.7-.09a.8.8,0,0,0-.05-1.12c-1.43.09-2.91.14-4.61.14-2.57,0-5,0-6.22-.14a.76.76,0,0,0,0,1.12l1.91.23c2.7.31,2.83.58,2.83,4.33v1.79a5.21,5.21,0,0,1-.43,2.55c-.48.76-2.09,1.34-4.79,1.34-8.75,0-13.06-6.75-13.06-15.33,0-6.71,3.7-12.88,12.14-12.88,4.44,0,7.71,1.52,8.93,6.35.26.27,1,.22,1.17-.14a51.69,51.69,0,0,1-.65-6.48,11.14,11.14,0,0,1-2.7-.4m6.35-22.8a.39.39,0,0,0,.13-.36.43.43,0,0,0-.18-.34l0,0h0a24.25,24.25,0,0,1-3.41,0h0l0,0a.36.36,0,0,0-.19.28.49.49,0,0,0,.11.41l0,0,.37,0a1.59,1.59,0,0,1,.64.18,20.74,20.74,0,0,1-1.08,2.21l-.08.16c-.44.87-.94,1.8-1.58,2.93-.48-.89-.94-1.87-1.4-2.81-.17-.37-.35-.74-.53-1.11a9.35,9.35,0,0,1-.54-1.37s.08-.11.64-.19l.28,0,0,0a.51.51,0,0,0,.11-.44.33.33,0,0,0-.22-.26h-.05c-.45,0-1.1.06-1.93.06s-1.51,0-2.09-.06h0l0,0a.37.37,0,0,0-.17.28.46.46,0,0,0,.1.4l0,0,.56.1c.48.09.72.13,1.33,1.34l2.14,4.29a3.68,3.68,0,0,1,.56,2.25v.94c0,2,0,2.13-1,2.23l-.61.06,0,0a.49.49,0,0,0-.1.4.41.41,0,0,0,.17.29l0,0h0c1,0,1.61-.05,2.37-.05s1.39,0,2.46.05h0l0,0a.37.37,0,0,0,.17-.29.45.45,0,0,0-.1-.4l0,0-.73-.06c-.84-.07-1-.21-1-2.23v-1a4.26,4.26,0,0,1,.83-3l1.14-2c.11-.18.2-.36.3-.53.71-1.28,1.23-2.21,2-2.35l.54-.1Zm9.62,36.48c0-9.79,5.87-13,10.4-13,8.31,0,11.49,8,11.49,15.34,0,8.81-5,12.83-10.19,12.83-8.57,0-11.7-8.58-11.7-15.2m-4.35,1.43c0,8.05,5.83,15.16,15.49,15.16,8.4,0,15.1-6.58,15.1-15.61,0-7.87-5.05-15.33-15.1-15.33-9,0-15.49,6.84-15.49,15.78M271.91,25c0,3.84-2.21,5.2-4.11,5.2-3.74,0-4.74-3.89-4.74-6.19,0-3.88,2.26-5.26,4.2-5.26,3.43,0,4.65,3.37,4.65,6.25m2.09-.58c0-3.14-2-6.53-6.43-6.53a6.52,6.52,0,0,0-6.6,6.72,6.32,6.32,0,0,0,6.6,6.46A6.4,6.4,0,0,0,274,24.37m12.17-3.62,0,0v0c0-.68-.05-1.55-.05-2.46v-.17l-.17,0c-.22.05-1.34.05-2.42.05H280.2c-.68,0-1.28,0-2.09-.06h0l0,0c-.15.07-.17.29-.18.36a.38.38,0,0,0,.13.35l.35.06c.92.11,1,.22,1,2.21v6.7c0,2,0,2.07-1,2.19l-.5.06,0,0a.48.48,0,0,0-.1.4.41.41,0,0,0,.18.29l0,0h0c.85,0,1.46-.05,2.26-.05s1.36,0,2.41.05h0l0,0a.44.44,0,0,0,.18-.36.38.38,0,0,0-.13-.35l-.68-.08c-.93-.08-1-.2-1-2.19V25.19c0-.36,0-.36.46-.36h1.23a6.21,6.21,0,0,1,1.36.09c.25.08.39.25.48.61l.19.77,0,0a.53.53,0,0,0,.68,0l0,0v0q0-.3,0-.72c0-.34,0-.72,0-1.09s0-.78,0-1.13,0-.55,0-.75v0l0,0a.5.5,0,0,0-.7,0l-.19.8c-.1.45-.22.5-.36.55a7.18,7.18,0,0,1-1.5.1h-1.23c-.46,0-.46,0-.46-.36V19.6c0-.6,0-.6.4-.6h1.11a7.26,7.26,0,0,1,1.72.11c.78.21,1,.74,1.17,1.65v.06l0,0a.4.4,0,0,0,.27.09.44.44,0,0,0,.38-.19" transform="translate(-17.67 -16.82)"/></g><g id="_2-lines" data-name="2-lines"><path class="cls-2" d="M312.35,39.11l1.64-2a5.75,5.75,0,0,0,3.76,1.53c1.13,0,1.82-.45,1.82-1.19v0c0-.71-.43-1.07-2.54-1.61-2.54-.64-4.18-1.35-4.18-3.85v0c0-2.28,1.84-3.79,4.41-3.79a7.29,7.29,0,0,1,4.69,1.6l-1.44,2.09a5.91,5.91,0,0,0-3.28-1.25c-1.06,0-1.62.49-1.62,1.1v0c0,.83.54,1.1,2.72,1.66,2.55.66,4,1.58,4,3.78v0c0,2.51-1.9,3.91-4.62,3.91A8,8,0,0,1,312.35,39.11Z" transform="translate(-17.67 -16.82)"/><path class="cls-2" d="M324.28,43.22l.92-2a2.56,2.56,0,0,0,1.17.38.93.93,0,0,0,1-.63l-3.79-9.69h2.9l2.2,6.57,2.11-6.57h2.84l-3.71,9.88c-.74,2-1.53,2.7-3.17,2.7A4.56,4.56,0,0,1,324.28,43.22Z" transform="translate(-17.67 -16.82)"/><path class="cls-2" d="M335.17,31.3h2.74v1.37a3.45,3.45,0,0,1,2.84-1.55,2.88,2.88,0,0,1,2.72,1.53,4,4,0,0,1,3.17-1.53c2,0,3.26,1.22,3.26,3.55V41h-2.74V35.57c0-1.3-.57-2-1.6-2s-1.65.67-1.65,2V41h-2.74V35.57c0-1.3-.58-2-1.6-2s-1.66.67-1.66,2V41h-2.74Z" transform="translate(-17.67 -16.82)"/><path class="cls-2" d="M352.24,31.3H355v1.39a3.56,3.56,0,0,1,3-1.57c2.25,0,4.39,1.76,4.39,5v0c0,3.23-2.1,5-4.39,5a3.72,3.72,0,0,1-3-1.44v4.14h-2.73Zm7.4,4.84v0a2.37,2.37,0,1,0-4.7,0v0a2.37,2.37,0,1,0,4.7,0Z" transform="translate(-17.67 -16.82)"/><path class="cls-2" d="M364.8,38.21V33.64h-1.15V31.3h1.15V28.83h2.74V31.3h2.27v2.34h-2.27v4.12c0,.63.27.94.88.94a2.84,2.84,0,0,0,1.35-.34v2.19a4,4,0,0,1-2.16.56C365.94,41.11,364.8,40.45,364.8,38.21Z" transform="translate(-17.67 -16.82)"/><path class="cls-2" d="M371.32,36.18v0a5.22,5.22,0,0,1,10.44,0v0a5.22,5.22,0,0,1-10.44,0Zm7.74,0v0a2.56,2.56,0,0,0-2.54-2.66,2.47,2.47,0,0,0-2.5,2.63v0a2.57,2.57,0,0,0,2.54,2.67A2.48,2.48,0,0,0,379.06,36.18Z" transform="translate(-17.67 -16.82)"/><path class="cls-2" d="M383.7,31.3h2.74v1.37a3.45,3.45,0,0,1,2.84-1.55A2.89,2.89,0,0,1,392,32.65a4,4,0,0,1,3.17-1.53c2,0,3.26,1.22,3.26,3.55V41h-2.74V35.57c0-1.3-.57-2-1.6-2s-1.66.67-1.66,2V41H389.7V35.57c0-1.3-.58-2-1.61-2s-1.65.67-1.65,2V41H383.7Z" transform="translate(-17.67 -16.82)"/><path class="cls-2" d="M406.58,38.21V33.64h-1.15V31.3h1.15V28.83h2.73V31.3h2.27v2.34h-2.27v4.12c0,.63.27.94.89.94a2.87,2.87,0,0,0,1.35-.34v2.19a4,4,0,0,1-2.16.56C407.71,41.11,406.58,40.45,406.58,38.21Z" transform="translate(-17.67 -16.82)"/><path class="cls-2" d="M413.09,36.18v0a5.23,5.23,0,0,1,10.45,0v0a5.23,5.23,0,0,1-10.45,0Zm7.74,0v0a2.56,2.56,0,0,0-2.53-2.66,2.47,2.47,0,0,0-2.51,2.63v0a2.57,2.57,0,0,0,2.54,2.67A2.47,2.47,0,0,0,420.83,36.18Z" transform="translate(-17.67 -16.82)"/><path class="cls-2" d="M313.21,49.1h4.92c4,0,6.7,2.71,6.7,6.26v0c0,3.54-2.74,6.3-6.7,6.3h-4.92Zm4.92,10.1a3.59,3.59,0,0,0,3.8-3.77v0a3.62,3.62,0,0,0-3.8-3.8H316v7.6Z" transform="translate(-17.67 -16.82)"/><path class="cls-2" d="M327,48.56h2.88V51H327Zm.07,3.49h2.74V61.7h-2.74Z" transform="translate(-17.67 -16.82)"/><path class="cls-2" d="M331.79,58.93v0c0-2.11,1.6-3.08,3.89-3.08a6.76,6.76,0,0,1,2.36.4v-.16c0-1.14-.71-1.77-2.07-1.77a7.18,7.18,0,0,0-2.67.52l-.68-2.09a8.6,8.6,0,0,1,3.74-.77A4.46,4.46,0,0,1,339.62,53a4.21,4.21,0,0,1,1.05,3.08v5.6H338v-1a3.75,3.75,0,0,1-2.92,1.22C333.28,61.88,331.79,60.83,331.79,58.93Zm6.28-.63v-.49a4.18,4.18,0,0,0-1.74-.36c-1.17,0-1.89.47-1.89,1.33v0c0,.74.61,1.17,1.49,1.17C337.21,60,338.07,59.29,338.07,58.3Z" transform="translate(-17.67 -16.82)"/><path class="cls-2" d="M343,63.61l.94-2.06a6.27,6.27,0,0,0,3.25.89c1.88,0,2.76-.9,2.76-2.63v-.47a3.78,3.78,0,0,1-3.15,1.57,4.24,4.24,0,0,1-4.29-4.5v0a4.25,4.25,0,0,1,4.29-4.5A3.91,3.91,0,0,1,350,53.31V52.05h2.74v7.47a5.18,5.18,0,0,1-1.22,3.8,5.68,5.68,0,0,1-4.16,1.3A9.12,9.12,0,0,1,343,63.61Zm6.95-7.2v0a2.35,2.35,0,0,0-4.7,0v0a2.2,2.2,0,0,0,2.34,2.23A2.23,2.23,0,0,0,350,56.41Z" transform="translate(-17.67 -16.82)"/><path class="cls-2" d="M355.1,52.05h2.74v1.37a3.41,3.41,0,0,1,2.82-1.55c2.07,0,3.28,1.37,3.28,3.58V61.7H361.2V56.32c0-1.3-.61-2-1.65-2s-1.71.67-1.71,2V61.7H355.1Z" transform="translate(-17.67 -16.82)"/><path class="cls-2" d="M365.81,56.93v0a5.06,5.06,0,0,1,5.24-5,5,5,0,0,1,5.2,5v0a5.22,5.22,0,0,1-10.44,0Zm7.74,0v0A2.56,2.56,0,0,0,371,54.23a2.47,2.47,0,0,0-2.5,2.63v0a2.57,2.57,0,0,0,2.54,2.67A2.48,2.48,0,0,0,373.55,56.93Z" transform="translate(-17.67 -16.82)"/><path class="cls-2" d="M377.44,60.42l1.17-1.8a5.41,5.41,0,0,0,3,1.15c.79,0,1.15-.29,1.15-.72v0c0-.6-.93-.8-2-1.12-1.35-.4-2.88-1-2.88-2.9v0c0-2,1.59-3.06,3.53-3.06a6.67,6.67,0,0,1,3.6,1.12l-1,1.89a5.72,5.72,0,0,0-2.61-.9c-.67,0-1,.29-1,.67v0c0,.54.92.8,2,1.16,1.35.45,2.92,1.09,2.92,2.86v0c0,2.15-1.6,3.12-3.69,3.12A6.73,6.73,0,0,1,377.44,60.42Z" transform="translate(-17.67 -16.82)"/><path class="cls-2" d="M387.25,48.56h2.88V51h-2.88Zm.07,3.49h2.73V61.7h-2.73Z" transform="translate(-17.67 -16.82)"/><path class="cls-2" d="M391.83,60.42l1.18-1.8a5.41,5.41,0,0,0,3,1.15c.79,0,1.15-.29,1.15-.72v0c0-.6-.94-.8-2-1.12-1.35-.4-2.88-1-2.88-2.9v0c0-2,1.59-3.06,3.53-3.06a6.67,6.67,0,0,1,3.6,1.12l-1,1.89a5.72,5.72,0,0,0-2.61-.9c-.67,0-1,.29-1,.67v0c0,.54.92.8,2,1.16,1.35.45,2.92,1.09,2.92,2.86v0c0,2.15-1.6,3.12-3.69,3.12A6.78,6.78,0,0,1,391.83,60.42Z" transform="translate(-17.67 -16.82)"/></g></svg>