<svg id="v2_-_sig_sys" data-name="v2 - sig sys" xmlns="http://www.w3.org/2000/svg" viewBox="0 0 391.168 54.305"><defs><style>.cls-1{fill:maroon;}</style></defs><title>logo</title><g id="Shape_1" data-name="Shape 1"><rect class="cls-1" x="276.311" width="1" height="53"/></g><g id="Department_Name_-_OUTLINES" data-name="Department Name - OUTLINES"><path class="cls-1" d="M286.317,10.45h4.811c3.878,0,6.557,2.662,6.557,6.134v.035c0,3.472-2.679,6.168-6.557,6.168h-4.811Zm4.811,9.888a3.516,3.516,0,0,0,3.719-3.684v-.035a3.544,3.544,0,0,0-3.719-3.719h-2.1v7.438Z" transform="translate(-0.37 0)"/><path class="cls-1" d="M299.365,18.117v-.035a4.7,4.7,0,0,1,4.67-4.917c3.155,0,4.6,2.449,4.6,5.128,0,.212-.018.459-.035.705h-6.574a2.191,2.191,0,0,0,2.308,1.851,3.1,3.1,0,0,0,2.292-.969l1.533,1.356a4.989,4.989,0,0,1-8.794-3.119Zm6.661-.793a2.025,2.025,0,0,0-1.991-2.009,2.105,2.105,0,0,0-2.044,2.009Z" transform="translate(-0.37 0)"/><path class="cls-1" d="M310.631,13.341h2.679V14.7a3.469,3.469,0,0,1,2.943-1.533c2.2,0,4.3,1.727,4.3,4.882v.035c0,3.154-2.062,4.882-4.3,4.882a3.628,3.628,0,0,1-2.943-1.411v4.054h-2.679Zm7.243,4.741v-.035a2.318,2.318,0,1,0-4.6,0v.035a2.318,2.318,0,1,0,4.6,0Z" transform="translate(-0.37 0)"/><path class="cls-1" d="M321.968,20.073v-.035c0-2.062,1.569-3.014,3.807-3.014a6.706,6.706,0,0,1,2.308.388v-.158c0-1.111-.687-1.728-2.026-1.728a6.959,6.959,0,0,0-2.609.511l-.669-2.044a8.334,8.334,0,0,1,3.665-.758,4.359,4.359,0,0,1,3.19,1.058,4.116,4.116,0,0,1,1.023,3.013v5.481h-2.591V21.765a3.634,3.634,0,0,1-2.855,1.2C323.431,22.964,321.968,21.942,321.968,20.073Zm6.151-.617v-.475a4.147,4.147,0,0,0-1.71-.353c-1.145,0-1.85.458-1.85,1.3v.035c0,.723.6,1.146,1.462,1.146C327.273,21.113,328.119,20.425,328.119,19.456Z" transform="translate(-0.37 0)"/><path class="cls-1" d="M332.969,13.341h2.679v1.9a2.918,2.918,0,0,1,3.014-2.079v2.8h-.141c-1.78,0-2.873,1.075-2.873,3.33v3.49h-2.679Z" transform="translate(-0.37 0)"/><path class="cls-1" d="M340.78,20.109V15.632h-1.128V13.341h1.128V10.926h2.678v2.415h2.221v2.291h-2.221v4.036c0,.617.265.916.864.916a2.722,2.722,0,0,0,1.322-.335V22.4a3.957,3.957,0,0,1-2.115.546C341.89,22.946,340.78,22.294,340.78,20.109Z" transform="translate(-0.37 0)"/><path class="cls-1" d="M347.656,13.341h2.679V14.68a3.374,3.374,0,0,1,2.784-1.515,2.827,2.827,0,0,1,2.662,1.5,3.887,3.887,0,0,1,3.1-1.5c1.992,0,3.19,1.2,3.19,3.471v6.151h-2.678V17.518c0-1.269-.564-1.921-1.569-1.921s-1.621.652-1.621,1.921v5.269h-2.679V17.518c0-1.269-.564-1.921-1.569-1.921s-1.621.652-1.621,1.921v5.269h-2.679Z" transform="translate(-0.37 0)"/><path class="cls-1" d="M363.948,18.117v-.035a4.7,4.7,0,0,1,4.67-4.917c3.155,0,4.6,2.449,4.6,5.128,0,.212-.018.459-.035.705h-6.574a2.191,2.191,0,0,0,2.308,1.851,3.1,3.1,0,0,0,2.292-.969l1.533,1.356a4.989,4.989,0,0,1-8.794-3.119Zm6.661-.793a2.025,2.025,0,0,0-1.991-2.009,2.105,2.105,0,0,0-2.044,2.009Z" transform="translate(-0.37 0)"/><path class="cls-1" d="M375.213,13.341h2.68V14.68a3.339,3.339,0,0,1,2.766-1.515c2.027,0,3.208,1.339,3.208,3.507v6.115h-2.679V17.518c0-1.269-.6-1.921-1.621-1.921s-1.674.652-1.674,1.921v5.269h-2.68Z" transform="translate(-0.37 0)"/><path class="cls-1" d="M386.638,20.109V15.632H385.51V13.341h1.128V10.926h2.679v2.415h2.221v2.291h-2.221v4.036c0,.617.264.916.864.916a2.715,2.715,0,0,0,1.321-.335V22.4a3.957,3.957,0,0,1-2.115.546C387.749,22.946,386.638,22.294,386.638,20.109Z" transform="translate(-0.37 0)"/><path class="cls-1" d="M286.317,31.608h2.5l5.781,7.6v-7.6h2.678V43.945h-2.308L289,36.1v7.843h-2.679Z" transform="translate(-0.37 0)"/><path class="cls-1" d="M299.4,41.231V41.2c0-2.062,1.569-3.013,3.807-3.013a6.718,6.718,0,0,1,2.309.387v-.158c0-1.11-.688-1.727-2.027-1.727a6.959,6.959,0,0,0-2.609.511l-.669-2.044a8.334,8.334,0,0,1,3.665-.758,4.359,4.359,0,0,1,3.19,1.057,4.118,4.118,0,0,1,1.023,3.014v5.481H305.5V42.923a3.634,3.634,0,0,1-2.855,1.2C300.863,44.121,299.4,43.1,299.4,41.231Zm6.151-.617v-.476a4.164,4.164,0,0,0-1.71-.352c-1.145,0-1.85.458-1.85,1.3v.035c0,.723.6,1.146,1.463,1.146C304.705,42.271,305.551,41.583,305.551,40.614Z" transform="translate(-0.37 0)"/><path class="cls-1" d="M310.4,34.5h2.68v1.339a3.373,3.373,0,0,1,2.784-1.516,2.826,2.826,0,0,1,2.661,1.5,3.89,3.89,0,0,1,3.1-1.5c1.992,0,3.19,1.2,3.19,3.472v6.151h-2.679v-5.27c0-1.269-.564-1.92-1.569-1.92s-1.621.651-1.621,1.92v5.27H316.27v-5.27c0-1.269-.563-1.92-1.568-1.92s-1.621.651-1.621,1.92v5.27H310.4Z" transform="translate(-0.37 0)"/><path class="cls-1" d="M326.693,39.275v-.036a4.7,4.7,0,0,1,4.671-4.917c3.155,0,4.6,2.45,4.6,5.129,0,.211-.017.458-.035.7h-6.574a2.191,2.191,0,0,0,2.309,1.85,3.1,3.1,0,0,0,2.292-.969l1.533,1.357a4.99,4.99,0,0,1-8.8-3.119Zm6.662-.793a2.025,2.025,0,0,0-1.991-2.01,2.106,2.106,0,0,0-2.045,2.01Z" transform="translate(-0.37 0)"/></g><path class="cls-1" d="M266.1,4.369l.017-.033,0-.037c-.035-.649-.055-1.488-.055-2.361V1.765l-.169.039c-.217.049-1.323.049-2.391.049h-3.3c-.676,0-1.277-.015-2.074-.052l-.035,0-.032.015c-.148.073-.173.284-.177.347a.363.363,0,0,0,.126.341l.345.057c.911.11.956.209.956,2.125v6.46c0,1.9-.045,2-.955,2.106l-.5.059-.034.033a.46.46,0,0,0-.1.39.362.362,0,0,0,.168.279l.032.016.036,0c.841-.034,1.446-.053,2.238-.053.724,0,1.346.02,2.382.054h.035l.031-.016a.414.414,0,0,0,.176-.349.359.359,0,0,0-.127-.337l-.673-.076c-.914-.077-.969-.2-.969-2.105v-2.5c0-.347,0-.347.455-.347h1.221a6.177,6.177,0,0,1,1.339.083.717.717,0,0,1,.483.584l.189.744.033.028a.521.521,0,0,0,.672-.029l.024-.034V9.636c0-.186-.015-.426-.031-.692-.019-.326-.041-.694-.041-1.049s.022-.748.041-1.087c.016-.279.031-.531.031-.725V6.041l-.024-.034a.412.412,0,0,0-.341-.142.454.454,0,0,0-.347.129l-.189.776c-.1.435-.222.478-.359.527a6.7,6.7,0,0,1-1.48.1h-1.221c-.455,0-.455,0-.455-.347V3.265c0-.579,0-.579.4-.579h1.094a7.628,7.628,0,0,1,1.705.1c.77.2,1,.715,1.155,1.6l.009.048.037.032a.41.41,0,0,0,.272.092.419.419,0,0,0,.373-.188ZM254.056,7.858a6.062,6.062,0,0,0-6.364-6.291,6.357,6.357,0,0,0-6.527,6.472,6.168,6.168,0,0,0,6.527,6.22,6.243,6.243,0,0,0,6.364-6.4Zm-2.07.558c0,3.7-2.188,5.011-4.06,5.011-3.7,0-4.691-3.748-4.691-5.963,0-3.739,2.236-5.066,4.152-5.066,3.394,0,4.6,3.242,4.6,6.018ZM237.309,39.005c0,7.752,5.77,14.6,15.33,14.6a14.7,14.7,0,0,0,14.943-15.029c0-7.579-5-14.771-14.943-14.771a14.885,14.885,0,0,0-15.33,15.2Zm4.306-1.378c0-9.43,5.813-12.488,10.292-12.488,8.225,0,11.369,7.665,11.369,14.771,0,8.483-4.909,12.36-10.077,12.36-8.484,0-11.584-8.269-11.584-14.643ZM232.1,2.491a.419.419,0,0,0,.13-.347.413.413,0,0,0-.183-.323L232.01,1.8l-.044,0a25.865,25.865,0,0,1-3.376,0l-.037,0-.033.017a.364.364,0,0,0-.189.277.457.457,0,0,0,.117.392l.035.034.369.041a1.627,1.627,0,0,1,.629.176,20.748,20.748,0,0,1-1.065,2.128l-.082.152c-.433.836-.931,1.736-1.562,2.818-.473-.854-.934-1.794-1.381-2.7-.176-.358-.35-.714-.526-1.063a9.868,9.868,0,0,1-.542-1.32c0-.036.083-.108.638-.187l.278-.043.032-.032a.474.474,0,0,0,.1-.43.326.326,0,0,0-.211-.247l-.027-.009-.026,0c-.441.035-1.083.052-1.91.052s-1.488-.017-2.072-.052l-.04,0-.037.02a.365.365,0,0,0-.168.266.491.491,0,0,0,.1.393l.032.037.551.1c.476.08.714.12,1.318,1.29L225,8.031a3.466,3.466,0,0,1,.559,2.162v.914c0,1.948-.044,2.048-.952,2.143l-.606.058-.035.035a.466.466,0,0,0-.1.393.359.359,0,0,0,.169.275l.032.016.035,0c.966-.035,1.595-.053,2.345-.053.728,0,1.371.02,2.436.054h.035l.031-.016a.359.359,0,0,0,.169-.277.457.457,0,0,0-.1-.392l-.036-.035-.732-.058c-.83-.062-.949-.2-.949-2.142v-.933a4.007,4.007,0,0,1,.824-2.838l1.131-1.956q.154-.264.295-.512c.705-1.233,1.215-2.124,1.978-2.256l.54-.1.029-.025ZM225.812,24.45a25.782,25.782,0,0,0-5.471-.646c-6.5,0-10.765,2.023-13.65,5.038a14.775,14.775,0,0,0-3.877,10.207,13.56,13.56,0,0,0,3.962,9.775c3.316,3.359,8.01,4.781,13.135,4.781a33.67,33.67,0,0,0,7.709-1.12,9.681,9.681,0,0,1,2.109-.388.353.353,0,0,0,.044-.516c-.775-.3-1.034-1.335-1.034-3.058V46.111c0-2.2.044-3.4,1.852-3.617l.69-.087a.752.752,0,0,0-.043-1.076c-1.422.086-2.887.128-4.565.128-2.542,0-4.91-.042-6.159-.128a.718.718,0,0,0,0,1.076l1.895.216c2.67.3,2.8.56,2.8,4.177v1.723a4.8,4.8,0,0,1-.43,2.454c-.475.732-2.067,1.293-4.738,1.293-8.656,0-12.92-6.5-12.92-14.772,0-6.459,3.662-12.4,12.016-12.4,4.393,0,7.622,1.464,8.828,6.115.259.258,1.034.216,1.163-.13a48.363,48.363,0,0,1-.646-6.243,11.371,11.371,0,0,1-2.669-.388ZM218.47,1.579l.013-.05-.022-.047c-.066-.134-.252-.148-.329-.148a.477.477,0,0,0-.169.028l-.045.017-.024.042c-.23.4-.326.432-1.28.432H209.2c-.8,0-1.163-.041-1.238-.443l-.008-.042-.031-.031a.339.339,0,0,0-.247-.073.576.576,0,0,0-.268.056l-.049.033-.01.059a18.651,18.651,0,0,1-.676,2.651l-.02.056.026.052a.5.5,0,0,0,.673.174l.029-.022.016-.033a3.143,3.143,0,0,1,.773-1.192,3.564,3.564,0,0,1,2.115-.412h.987c.4,0,.4,0,.4.435v8.023c0,1.944-.112,2.029-.987,2.105l-.645.054-.061.02a.386.386,0,0,0-.16.359.381.381,0,0,0,.171.329l.031.016h.035c1.1-.034,1.76-.054,2.489-.054.7,0,1.28.017,2.345.054h.035l.032-.016c.147-.073.172-.283.176-.346a.367.367,0,0,0-.125-.34l-.638-.076c-.9-.077-.951-.2-.951-2.105V3.1a1.119,1.119,0,0,1,.029-.383,1.066,1.066,0,0,1,.354-.03h1.273a3.466,3.466,0,0,1,2,.421,2.12,2.12,0,0,1,.394,1.216l0,.04.025.031a.424.424,0,0,0,.326.128.4.4,0,0,0,.372-.191l.017-.035,0-.04a10.773,10.773,0,0,1,.265-2.677Zm-16.359,9.528V4.719c0-1.961.054-2.082.966-2.159l.486-.039.029-.02a.361.361,0,0,0,.125-.34c0-.063-.029-.274-.176-.346L203.51,1.8l-.035,0c-.849.033-1.484.052-2.22.052-.77,0-1.387-.018-2.256-.052l-.035,0-.032.016c-.147.073-.171.284-.176.347a.366.366,0,0,0,.125.339l.03.02.484.039c.915.077.969.2.969,2.159v6.388c0,1.932-.046,2.032-.974,2.143l-.5.059-.033.034a.463.463,0,0,0-.1.391.358.358,0,0,0,.168.277l.033.016.035,0c.913-.035,1.513-.053,2.256-.053.713,0,1.307.018,2.22.053l.035,0,.031-.016a.422.422,0,0,0,.176-.348.364.364,0,0,0-.125-.338l-.51-.075c-.926-.111-.971-.211-.971-2.143Zm-2.957,40.732c-1.852-.216-2.411-.862-3.661-4.565l-5.9-17.312c-.645-1.895-1.334-3.876-1.895-5.771a.609.609,0,0,0-.645-.387,4.83,4.83,0,0,1-2.239,1.637c.129.689-.13,1.506-.733,3.056l-4.392,11.628c-1.809,4.823-3.015,7.623-3.791,9.6a2.861,2.861,0,0,1-2.582,2.111l-1.422.129a.849.849,0,0,0,.087,1.077c1.163-.043,2.712-.129,4.133-.129,2.025.043,3.36.043,4.48.129a.694.694,0,0,0,.086-1.077l-1.422-.129c-1.033-.086-1.249-.345-1.249-.862a16.489,16.489,0,0,1,.948-3.574l1.507-4.521c.3-.905.56-1.034,1.636-1.034h6.5c1.291,0,1.465.129,1.766,1.076l1.9,5.857a8.815,8.815,0,0,1,.56,2.282c0,.431-.6.69-1.507.776l-1.249.129a.721.721,0,0,0,.086,1.077c1.249-.043,2.884-.129,4.952-.129,1.938,0,3.445.043,5.211.129a.847.847,0,0,0,0-1.077l-1.163-.129Zm-11.11-11.714h-5.3c-1.206,0-1.249-.043-.905-1.033l2.713-7.493a26.6,26.6,0,0,1,1.033-2.542h.087a28.031,28.031,0,0,1,.989,2.713l2.327,7.02c.388,1.163.3,1.335-.947,1.335ZM189.8,4.253c0-.692.26-1.854,2-1.854a2.219,2.219,0,0,1,2.308,1.926l.027.051a.34.34,0,0,0,.271.109.5.5,0,0,0,.4-.175l.023-.034V4.235A7.962,7.962,0,0,0,194.5,2l-.034-.09h-.095a2.311,2.311,0,0,1-.6-.1,7.136,7.136,0,0,0-1.7-.238c-2.272,0-3.8,1.3-3.8,3.223a4.019,4.019,0,0,0,2,3.2l1.7,1.113a2.574,2.574,0,0,1,1.41,2.4,1.909,1.909,0,0,1-2.1,1.924,3.1,3.1,0,0,1-2.955-2.575l-.017-.037a.313.313,0,0,0-.274-.125.486.486,0,0,0-.384.175l-.026.039v.047a8.435,8.435,0,0,0,.5,2.573l.018.034.034.019a5.747,5.747,0,0,0,2.868.682c2.369,0,3.96-1.39,3.96-3.457A4.119,4.119,0,0,0,192.7,7.24l-1.437-.9a2.713,2.713,0,0,1-1.46-2.089Zm-4.52,9.8a.3.3,0,0,0,.109-.277.262.262,0,0,0-.162-.211l-.04-.009a2.022,2.022,0,0,1-1.159-.471,19.475,19.475,0,0,1-3.578-4.74.512.512,0,0,1-.106-.251,3.459,3.459,0,0,0,2.28-3.1,2.8,2.8,0,0,0-1.563-2.633A6.536,6.536,0,0,0,178,1.8c-1.644,0-2.919.046-4.013.144l-.05.014a.369.369,0,0,0-.185.309.42.42,0,0,0,.147.375l.028.021.61.076c.585.071.669.2.669,1.961v6.444c0,1.9-.044,1.995-.954,2.106l-.5.059-.035.041a.5.5,0,0,0-.087.41.337.337,0,0,0,.167.251l.031.016.035,0c.8-.032,1.451-.053,2.238-.053.741,0,1.364.021,2.129.053l.036,0,.032-.016a.4.4,0,0,0,.173-.309.41.41,0,0,0-.112-.368l-.029-.025-.416-.059c-.922-.128-.958-.207-.958-2.106V8.882c0-.256,0-.256.7-.256.689,0,.924.165,1.162.514.272.4.589.9.9,1.384.321.508.624.987.863,1.326,1.233,1.756,2.163,2.319,3.827,2.319a2.9,2.9,0,0,0,.832-.1l.042-.022Zm-5.408-6.678a2.918,2.918,0,0,1-1.764.439,5.839,5.839,0,0,1-1.134-.053,2.929,2.929,0,0,1-.021-.492v-4.2c0-.4,0-.436,1.029-.436a2.514,2.514,0,0,1,2.733,2.626,2.465,2.465,0,0,1-.843,2.115ZM170.6,11.421l.009-.043-.018-.04a.462.462,0,0,0-.422-.25.4.4,0,0,0-.232.069l-.043.05a4.364,4.364,0,0,1-1.213,1.679,5.28,5.28,0,0,1-2.235.254c-1.5,0-1.88-.178-2.07-.369-.255-.27-.305-.854-.305-1.771V8.47c0-.347,0-.347.455-.347h1.041a6.186,6.186,0,0,1,1.348.085c.249.062.377.225.457.579l.16.7.027.058a.44.44,0,0,0,.337.129.4.4,0,0,0,.357-.165l.018-.032V9.439c0-.175-.014-.407-.03-.667-.02-.327-.042-.7-.042-1.056,0-.376.022-.76.042-1.1.016-.274.03-.52.03-.713V5.867l-.018-.031a.394.394,0,0,0-.357-.167.44.44,0,0,0-.337.129l-.172.8c-.081.41-.182.471-.338.523a6.692,6.692,0,0,1-1.482.1h-1.041c-.455,0-.455,0-.455-.365V3.265c0-.579,0-.579.4-.579h1.291a8.553,8.553,0,0,1,1.708.1c.818.2.982.722,1.231,1.505l.034.108.026.045a.362.362,0,0,0,.292.115.464.464,0,0,0,.376-.161l.028-.041-.025-.264a15.508,15.508,0,0,0-.274-2.205l-.043-.118L169,1.8c-.2.049-1.313.049-2.389.049h-3.374c-.691,0-1.283-.014-2.11-.052l-.036,0-.031.015a.423.423,0,0,0-.177.346A.365.365,0,0,0,161,2.5l.348.058c.918.109.973.228.973,2.125v6.46c0,1.944-.112,2.028-.988,2.105l-.64.058-.036.035a.463.463,0,0,0-.1.391.359.359,0,0,0,.169.278l.032.016h.035c1.036-.034,1.661-.054,2.435-.054h1.615c1.566,0,3.138.017,4.807.054l.088,0,.039-.081a15.739,15.739,0,0,0,.817-2.526ZM158.29,2.484a.482.482,0,0,0,.1-.385.364.364,0,0,0-.163-.281l-.036-.02-.041,0c-.6.035-1.152.052-1.732.052-.706,0-1.382-.019-1.857-.052l-.042,0-.036.021a.4.4,0,0,0-.18.318.408.408,0,0,0,.123.354l.032.028.364.04c.628.072.686.2.687.2a1.787,1.787,0,0,1-.152.65c-.309.781-1.165,2.836-1.667,4.015-.133.306-.3.7-.486,1.142-.34.807-.754,1.789-1.106,2.56-.849-1.951-1.632-3.908-2.425-5.907a24,24,0,0,1-.883-2.459c.028-.057.183-.134.72-.2l.31-.041.031-.027a.411.411,0,0,0,.124-.354.407.407,0,0,0-.18-.318l-.036-.021-.04,0c-.8.037-1.426.052-2.165.052s-1.321-.016-1.857-.052l-.044,0-.038.023a.438.438,0,0,0-.054.67l.032.028.366.04c.7.082.936.4,1.342,1.387l3.158,7.787a20.565,20.565,0,0,1,.819,2.369l.017.067.065.026a.836.836,0,0,0,.321.064.49.49,0,0,0,.274-.077l.041-.026.014-.046c.308-.964,1.169-3.079,1.861-4.67l.969-2.207a43.138,43.138,0,0,1,2-4.11,1.006,1.006,0,0,1,.825-.563l.591-.039.037-.037Zm-11.717,24.98a14.308,14.308,0,0,0-5.427,11.413,13.888,13.888,0,0,0,6.116,11.843,18.874,18.874,0,0,0,10.723,2.885,25.343,25.343,0,0,0,6.8-.991,8.808,8.808,0,0,1,1.508-.431,16.19,16.19,0,0,0,2.067-5.9.906.906,0,0,0-1.119-.172,9.183,9.183,0,0,1-9,6.159c-7.063,0-12.791-5-12.791-14.04,0-8.914,5.6-13.091,12.188-13.091,6.245,0,8.183,3.359,8.828,6.288a.911.911,0,0,0,1.163-.087c-.344-2.626-.56-5.339-.6-6.33a3.267,3.267,0,0,1-1.2-.172A33.236,33.236,0,0,0,158.2,23.8a18.563,18.563,0,0,0-11.628,3.66Zm-5.506-16.357V4.719c0-1.941.064-2.082.969-2.159l.484-.039.029-.02a.362.362,0,0,0,.125-.341.421.421,0,0,0-.176-.346l-.032-.015-.035,0c-.848.033-1.482.052-2.219.052-.771,0-1.387-.018-2.255-.052l-.035,0-.031.015c-.149.073-.173.284-.178.347a.368.368,0,0,0,.126.341l.03.019.483.039c.906.077.969.218.969,2.159v6.388c0,1.932-.046,2.032-.973,2.143l-.5.059-.034.033a.463.463,0,0,0-.1.393.359.359,0,0,0,.17.276l.032.016.035,0c.911-.035,1.511-.053,2.255-.053.71,0,1.327.019,2.219.053l.035,0,.032-.016c.148-.073.173-.284.177-.347a.363.363,0,0,0-.126-.339l-.508-.075c-.928-.111-.974-.211-.974-2.143ZM132.061,46.37V31.039c0-4.565.085-5.3,2.627-5.512l1.076-.086c.258-.174.172-.948-.086-1.077-2.154.086-3.617.129-5.34.129-1.809,0-3.273-.043-5.426-.129-.258.129-.345.9-.086,1.077l1.076.086c2.541.215,2.627.947,2.627,5.512V46.37c0,4.565-.086,5.167-2.627,5.469l-1.076.129a.837.837,0,0,0,.086,1.077c2.153-.086,3.617-.129,5.426-.129,1.723,0,3.186.043,5.34.129.258-.129.344-.905.086-1.077l-1.076-.129c-2.542-.3-2.627-.9-2.627-5.469Zm2.22-43.886a.456.456,0,0,0,.114-.367.4.4,0,0,0-.174-.3l-.037-.023-.045,0c-.588.034-1.056.052-1.84.052-.633,0-1.225-.014-2.111-.052l-.028,0-.026.01a.332.332,0,0,0-.2.269.446.446,0,0,0,.123.413l.032.028.346.04c.616.077.929.169,1.013.3a10.983,10.983,0,0,1,.338,3.64v3.84c0,.174,0,.375-.012.513-.622-.643-1.273-1.372-2.082-2.278l-2.5-2.8a20.471,20.471,0,0,1-3.021-3.882l-.04-.1-.109.017a5.68,5.68,0,0,1-.806.051c-.313,0-1.268,0-2.016-.052l-.038,0-.034.017a.358.358,0,0,0-.182.271.475.475,0,0,0,.109.4l.035.035.351.041a1.793,1.793,0,0,1,1.028.387,1.52,1.52,0,0,1,.359,1.2V9.494a16.584,16.584,0,0,1-.221,3.477c-.042.091-.194.214-.679.279l-.533.058-.034.035a.429.429,0,0,0-.109.342.42.42,0,0,0,.162.315l.039.028.049,0c.624-.034,1.105-.053,1.858-.053.608,0,1.215.016,2.094.053l.048,0,.038-.028a.4.4,0,0,0,.158-.269.5.5,0,0,0-.091-.373l-.037-.049-.62-.06c-.43-.035-.731-.136-.806-.272a12.185,12.185,0,0,1-.3-3.646V5.419a7.8,7.8,0,0,1,.037-.907c.286.319.761.88,1.188,1.385.293.347.564.668.74.87l4.163,4.736c1.383,1.574,2.046,2.355,2.287,2.7l.042.058h.072a.458.458,0,0,0,.471-.292l.01-.029,0-.03c-.024-.209-.053-.92-.053-3.123V6.253a13.176,13.176,0,0,1,.255-3.392c.023-.046.238-.2.9-.3l.3-.042.032-.033ZM118.2,2.457a.491.491,0,0,0,.1-.377.367.367,0,0,0-.165-.259l-.037-.023-.043,0c-.624.034-1.108.052-1.877.052-.688,0-1.354-.017-2.038-.052l-.045,0-.039.026a.4.4,0,0,0-.157.279.451.451,0,0,0,.093.355l.037.044.506.039c.412.034.692.144.788.308a11.459,11.459,0,0,1,.324,3.646V8.56c0,2.114-.6,4.634-3.451,4.634-2.392,0-3.506-1.478-3.506-4.653V4.665c0-1.908.062-2.047.95-2.124L110.1,2.5l.029-.02a.354.354,0,0,0,.125-.332.4.4,0,0,0-.176-.338l-.032-.015-.035,0c-.851.034-1.453.052-2.2.052s-1.372-.019-2.219-.052l-.035,0-.031.015a.4.4,0,0,0-.177.336.355.355,0,0,0,.124.333l.03.021.484.037c.888.077.951.216.951,2.124V8.9c0,2.17.446,3.509,1.447,4.34a5.184,5.184,0,0,0,3.446,1.019,4.871,4.871,0,0,0,3.527-1.354,6.213,6.213,0,0,0,1.293-4.382V6.5a16.6,16.6,0,0,1,.239-3.6.955.955,0,0,1,.783-.351l.489-.039.037-.045ZM97.567,25.441c.258-.174.172-.948-.086-1.077-1.852.086-3.316.129-5,.129-1.851,0-3.316-.086-5.426-.129-.259.129-.345.9-.086,1.077l1.119.086c2.24.172,2.542.9,2.542,5.426v15.5c0,4.521-.087,4.952-2.5,5.383l-.731.129a.838.838,0,0,0,.085,1.077c1.68-.043,3.145-.129,5-.129,1.68,0,3.144.043,5.469.129.259-.129.345-.905.086-1.077l-1.248-.129c-2.412-.258-2.627-.862-2.627-5.383V40.383c0-1.291.086-1.377,2.153-1.377h12.316c2.068,0,2.154.086,2.154,1.377v6.073c0,4.521,0,4.952-2.627,5.383l-.818.129a.836.836,0,0,0,.086,1.077c1.895-.086,3.445-.129,5.21-.129,1.68,0,3.144.043,5.211.129.258-.129.344-.905.087-1.077l-1.034-.129c-2.5-.3-2.584-.862-2.584-5.383v-15.5c0-4.522.086-5.169,2.584-5.426l.9-.086c.259-.174.172-.948-.086-1.077-1.938.086-3.4.129-5.082.129-1.765,0-3.23-.043-5.21-.129-.259.129-.345.9-.086,1.077l.818.086c2.541.257,2.627.9,2.627,5.426v4.952c0,1.335-.086,1.378-2.154,1.378H96.318c-2.067,0-2.153-.043-2.153-1.378V30.953c0-4.522.086-5.169,2.584-5.426l.818-.086ZM95.83,11.421l.009-.043-.018-.04a.463.463,0,0,0-.423-.25.394.394,0,0,0-.231.069l-.044.05a4.355,4.355,0,0,1-1.212,1.679,5.289,5.289,0,0,1-2.236.254c-1.494,0-1.88-.179-2.07-.369-.254-.27-.3-.854-.3-1.771V8.47c0-.347,0-.347.455-.347H90.8a6.186,6.186,0,0,1,1.347.085c.25.063.378.225.456.58l.161.7.028.057a.434.434,0,0,0,.337.13.4.4,0,0,0,.356-.165l.019-.032V9.439c0-.175-.014-.407-.03-.667-.02-.327-.042-.7-.042-1.056,0-.376.022-.76.041-1.1.016-.274.031-.52.031-.713V5.867l-.018-.031a.4.4,0,0,0-.358-.167.436.436,0,0,0-.336.129l-.172.8c-.082.41-.182.471-.339.523a6.681,6.681,0,0,1-1.481.1H89.756c-.455,0-.455,0-.455-.365V3.265c0-.579,0-.579.4-.579h1.292a8.536,8.536,0,0,1,1.707.1c.819.2.983.722,1.232,1.505l.034.108.025.045a.365.365,0,0,0,.292.115.466.466,0,0,0,.377-.161l.027-.04L94.664,4.1a15.457,15.457,0,0,0-.275-2.2l-.041-.118-.122.03c-.2.049-1.312.049-2.389.049H88.463c-.691,0-1.282-.014-2.11-.052l-.035,0-.032.015a.426.426,0,0,0-.177.346.365.365,0,0,0,.125.341l.348.058c.918.109.973.228.973,2.125v6.46c0,1.944-.112,2.028-.988,2.105l-.641.058-.035.035a.467.467,0,0,0-.1.393.362.362,0,0,0,.17.276l.031.016h.035c1.037-.034,1.661-.054,2.435-.054h1.616c1.565,0,3.137.017,4.806.054l.089,0,.038-.08a15.754,15.754,0,0,0,.818-2.527Zm-15-.277V4.684c0-1.911.053-2.031.952-2.124l.375-.036.063-.022a.367.367,0,0,0,.127-.34c0-.063-.029-.274-.176-.347L82.142,1.8l-.036,0c-.867.038-1.459.052-2.112.052-.777,0-1.4-.02-2.164-.052l-.035,0-.032.015a.423.423,0,0,0-.177.346.365.365,0,0,0,.125.341l.4.058c.917.095.971.214.971,2.125V6.747c0,.436,0,.436-.759.436H73.194c-.759,0-.759,0-.759-.436V4.684c0-1.911.053-2.03.953-2.125l.34-.035.063-.023a.363.363,0,0,0,.125-.34c0-.063-.029-.274-.177-.347L73.707,1.8l-.035,0c-.817.037-1.418.052-2.075.052-.469,0-.877-.013-1.324-.027-.287-.009-.59-.019-.934-.026h-.033l-.03.015a.421.421,0,0,0-.177.345.365.365,0,0,0,.124.342l.03.02.5.039c.791.061.931.223.931,2.124v6.46c0,1.868-.034,1.947-.926,2.107l-.348.061-.03.03a.467.467,0,0,0-.1.393.36.36,0,0,0,.17.276l.03.015h.035c.246-.006.482-.015.717-.023.424-.015.863-.031,1.361-.031.674,0,1.246.017,2.275.054h.035l.031-.016a.415.415,0,0,0,.176-.349.362.362,0,0,0-.127-.337l-.581-.075c-.861-.093-.971-.179-.971-2.106V8.613c0-.436,0-.436.759-.436h5.132c.759,0,.759,0,.759.436v2.531c0,1.909-.018,1.948-.978,2.106l-.385.061-.032.032a.459.459,0,0,0-.1.393.353.353,0,0,0,.17.275l.031.016.036,0c.859-.037,1.486-.053,2.164-.053.707,0,1.33.02,2.166.053l.035,0,.031-.016c.149-.072.174-.283.178-.346a.365.365,0,0,0-.126-.34l-.49-.075c-.91-.11-.955-.209-.955-2.106ZM66.079,1.579l.014-.051-.024-.048c-.069-.136-.269-.146-.329-.146a.477.477,0,0,0-.169.028l-.044.018-.024.041c-.231.4-.327.432-1.28.432H56.805c-.8,0-1.163-.041-1.239-.443l-.008-.042-.03-.03a.339.339,0,0,0-.248-.074.56.56,0,0,0-.267.057l-.049.033-.01.058a18.892,18.892,0,0,1-.676,2.651l-.02.056.026.052a.5.5,0,0,0,.673.174l.029-.022L55,4.29A3.156,3.156,0,0,1,55.775,3.1a3.559,3.559,0,0,1,2.114-.412h.986c.4,0,.4,0,.4.435v8.023c0,1.944-.112,2.028-.986,2.105l-.646.054-.061.02a.441.441,0,0,0,.011.688l.031.016h.035c1.1-.034,1.762-.054,2.489-.054.7,0,1.28.017,2.347.054h.035l.031-.016a.415.415,0,0,0,.176-.349.364.364,0,0,0-.126-.337l-.638-.076c-.9-.077-.951-.2-.951-2.105V3.1a1.137,1.137,0,0,1,.029-.386,1.066,1.066,0,0,1,.354-.03h1.273a3.457,3.457,0,0,1,2,.422,2.082,2.082,0,0,1,.394,1.215l.005.04.026.031a.418.418,0,0,0,.325.128.4.4,0,0,0,.371-.191l.017-.035,0-.04a10.812,10.812,0,0,1,.266-2.677Zm-12.223,37.3A13.885,13.885,0,0,0,59.972,50.72a18.872,18.872,0,0,0,10.723,2.885,25.357,25.357,0,0,0,6.8-.991,8.8,8.8,0,0,1,1.507-.431,16.172,16.172,0,0,0,2.067-5.9.906.906,0,0,0-1.119-.172,9.183,9.183,0,0,1-9,6.159c-7.063,0-12.79-5-12.79-14.04,0-8.914,5.6-13.091,12.187-13.091,6.244,0,8.183,3.359,8.828,6.288a.91.91,0,0,0,1.163-.087c-.345-2.626-.56-5.339-.6-6.33a3.267,3.267,0,0,1-1.2-.172A33.236,33.236,0,0,0,70.91,23.8a18.563,18.563,0,0,0-11.628,3.66,14.307,14.307,0,0,0-5.426,11.413Zm-11.2-7.267,0-30a210.338,210.338,0,0,0-42.286,0s0,30,0,30c1.92,20.334,20.965,22.723,21.146,22.69,3.4-.613,19.368-3.824,21.142-22.695ZM7.159,39.1a7.054,7.054,0,0,0,1.254.553c.515,1.347.013,2.67-.276,2.121A13.24,13.24,0,0,1,7.159,39.1Zm.024-14.745-.031-.031c-.038,0-2.677,1.665-4.392.866,1.278-.707,5.7-3.518,6.912-4.315a1.042,1.042,0,0,0,.985-.211c-.463.029-1.995.269-1.221-1.1.3,1.229,2.448.1,3.219-.08,2.151-.494,2.135,1.8,1.952,2.754-.068.354.659.605,1.017.555-.616,1.518-1.668.087-1.794.666-.051.235-.755.419-.752,1,0,.8.316.362.344.98.032.6-.255.132-.19.78.1,1.028,1.8-.137,2.506.141.352.139.585.454.928.392.1-.082.055-.471.039-.61-.036-.326-.64-.364-.921-.81-.245-.389.278-1.559.561-1.9.406,1.93,2.215,1.325,2.485,3.356.171.574-.622,1.212.021,2.147-.477.463-1.051,2.661-.052,3.693a1.832,1.832,0,0,0,.5,2.177,3.053,3.053,0,0,0,.022,2.208c-.554,0-.444-3.106-3.762-3.205-.074-.023-.092.353,0,.521.4.7.932.658.817,2.3-.039.562-.369-.1-.545-.254a1.822,1.822,0,0,1-.887-1.559A2.965,2.965,0,0,0,13.812,37.8s-.3-.812-.638-1.645c-.018-.044,1.37-1.713,1.59-2.11,2.8-5.04-1.808,1.629-1.817,1.606a6.277,6.277,0,0,0-.611-1.226,10.583,10.583,0,0,0,1.152-1.65c2.166-4.51-1.287,1.5-1.41,1.391-.261-.235-.477-.529-.642-.424-.039.693-.2.6-.156,1.306A8.978,8.978,0,0,1,9.6,36.663s-.135-1.252-.1-1.3c.272-.331,1.337-1.473,1.555-1.814C14.607,27.979,9.4,34.9,9.388,34.836a2.356,2.356,0,0,0-.627-.894A24.477,24.477,0,0,0,10.2,31.791c2.159-4.439-1.735,1.967-1.778,1.944a1.042,1.042,0,0,0-.212-.085,7.994,7.994,0,0,1,.269-2.026c.293-1.479-.491-.287-.7,2.057a2.044,2.044,0,0,0-.87.249c.119.625.267.144.529.745.314.72-.437,1.9.217,2.765.252.334.267.278.217.5-.4-.028-.646-.036-.9.311A17.341,17.341,0,0,1,6.6,32.639,18.468,18.468,0,0,0,6.836,30c-.148-.028-2.5,6.027-3.067,7.214-.992-.335.617-5.576,2.662-8.1.192-.8-1.072.813-1.827,1.457-.693.59-1.569,1.36-2.524,1.1,1.226-1.3,4.038-3.723,4.351-4.33.261-.52-1.919,1.618-4.222.823,1.49-.8,4.968-2.574,4.974-3.812Zm4.147,11.39a5.191,5.191,0,0,0,.131,1.522c.261.847.13.586-.225.3a3.024,3.024,0,0,1-.683-.941c-.034-.261.176-.275.777-.876ZM16.9,22.1c-.336-.573.4-1.119.4-1.119-.023,1.611,2.037.5,3.112,1.017a1.144,1.144,0,0,1,.547.585c-1.156-.8-3.294.826-4.06-.483ZM4.782,9.225a1.378,1.378,0,0,1,0-2.756,1.378,1.378,0,0,1,0,2.756Zm0,5.506a1.378,1.378,0,1,1,0-2.755,1.378,1.378,0,0,1,0,2.755ZM8.271,8.783h-1.6V7.207h1.6V8.783Zm0,5.493h-1.6V12.7h1.6v1.577ZM21.22,16.991a9.988,9.988,0,0,0-3.647-1.041c-1.9-.126-5.75,1.395-8.7,1.194V4.167s3.368.448,4.751-.086c4.7-1.814,7.6.213,7.6.213v12.7ZM24.469,19.1a.526.526,0,0,1-.371.612.982.982,0,0,0,1.182-.52c.271,1.128-.866,1.191-1.22,1.259,0,0,.576.165.606.541.075.954.688.873.821.8-.022.115-.212.691-.9.172-.117.115.188.293.248.767.078.6.059,1.153.75,1.518-.423.337-.923-.54-.966-.436s.589.44-.114,2.1c-.32-.184-.141-.149-.513-.591-.284-.238-.4-.291-.159.1a2.807,2.807,0,0,1,.37,2.02c-.342-.148-.254-.421-.657-.792a2,2,0,0,0,.54,1.318,3.173,3.173,0,0,1,.987,1.588,13.729,13.729,0,0,1-.2,2.128c-.346-.05-.639-1.029-.722-.974a1.943,1.943,0,0,0,.694,1.567c.315.92.188,1.414.1,1.448-.111.047-.461-.942-.652-.77a4.214,4.214,0,0,1,.033,3.9c-.192-.744-.289-1.3-.528-2.144-.505.4-.626.984-1.243,1.522a9.849,9.849,0,0,0-1-3.822c-.021-.025-.8,2.08-1.149,3.016a5.343,5.343,0,0,0,0,3.912c-1.144-1.627-1.267-4.654-.28-5.063.086-.216-.059-.929-.279-.841a1.672,1.672,0,0,1-.31.987c-.757-.222-.412-1.146-.344-1.452.982-1.178.368-1.451.323-1.42-.107.27-.2.6-.5.724-.63-1.084-.226-2.783.971-4.053.05-.474-.536.353-.917.324A2.109,2.109,0,0,1,21,25.983c-.323-.094-.5-.153-.574-.422.511-.076,2.113-.2,1.849-1.463a2.1,2.1,0,0,1-.618.634c-.281.171-.587.185-.746-.062.743-.246.5-1.15-.472-.884a.686.686,0,0,1-.754-.574c.216.216.654.056.907-.108a1.3,1.3,0,0,1,1.906.539c.044,0,.489-1.027-1.061-1.3a1.359,1.359,0,0,0-1.536-.918c-.347-1.224-1.4-.62-1.361-.066-1.115-.821.019-1.857.469-2.017.312.026.244,1.014.792.848.132-.04-.426-.681-.212-.972.5-.287.491.368.739.124a1.179,1.179,0,0,1,1.022-.715c1.14-.162,2.025,1.087,3.118.475ZM34.721,17.19c-2.474.169-7.608-1.24-8.913-1.24a6.646,6.646,0,0,0-4,1.051s0-12.223,0-12.663c0,0,3.538-1.659,6.112-.709a15.98,15.98,0,0,0,6.8.648V17.19ZM37.979,12.2c1.364-.2,1.569,1.411,1.569,1.411h0a1.373,1.373,0,0,0-1.468-.093,5.977,5.977,0,0,1-2.9.992V12.048s.29.514,2.8.148Zm1.614-3.365c-.01-.073-.025-.184-.047-.342-.035-.246-.74-.388-1.239-.17-.7.3-2.444,1.3-3.082,1.113V6.974a3.5,3.5,0,0,0,2.693.066,1.549,1.549,0,0,1,1.63,1.449c.021.158.036.269.045.342ZM37.836,34.308a4.345,4.345,0,0,0-1.963,1.079,14.777,14.777,0,0,0-.961-5.814c-.525-1.211.235,2.817.287,3.745,0,.041-4.348-5.589-1.722-1.253a7.463,7.463,0,0,0,1.744,1.877,5.16,5.16,0,0,1-.183,1.776c-.268.214-5.922-7.524-2.8-2.165a32.662,32.662,0,0,0,2.636,2.716,3.661,3.661,0,0,1-.75,1.078c-.06-.06-1.3-.977-1.313-1.033-.094-.6-.1-1.164-.837-.74,0,0-2.786-3.243-1.5-.97a3.763,3.763,0,0,0,1.084,1.28A3.755,3.755,0,0,0,31,37.092c-.056.25-2.415-2.616-1.489-.816.3.577,1.375,1.206,1.364,1.247a6.708,6.708,0,0,1-.341.974,23,23,0,0,1-2.217,1.949A4.327,4.327,0,0,1,29.6,38.5a6.052,6.052,0,0,1,.837-.5A.757.757,0,0,0,30,37.408a4.337,4.337,0,0,0-1.283.072c.092-.491-.338-1.548-.332-2.711a2.161,2.161,0,0,0-1.174.931c-.113,1.927-.532,1.35-.923,2.736-.426-.581.029-1.416-.388-1.96a3.487,3.487,0,0,1-.747-2.174c.135-.075.721-.722.187-2.081-.087-2.135.867-2.951-.839-4.445.144-.046.247-1.116.247-1.118,1.257.671,1.007-.775,1.5-1.06.777-.451.637-.918.287-1.5,2.224.632-.1,2.152.906,2.185a1.577,1.577,0,0,0,1.536-.654c.338-.518-.058-.836.885-1.677.094-.084.344-.646-.4-.8-.164-.034,0-.674,0-.674-.6.507-.788,1.221-1.75.769a1.013,1.013,0,0,0-1.014.094A.448.448,0,0,1,27,22.8c1.054-.354,1.314-.774,1.256-1-.142-.547-.185,0-.154-.577a1.914,1.914,0,0,1,.5-.806c.714-.863,1.22-.539,1.4-.463a2.378,2.378,0,0,1,.875-.451,4.953,4.953,0,0,1,2.9.544,2.106,2.106,0,0,0,1.306.181.425.425,0,0,1-.331.407c-.25.077-.548,0-.528.183.011.107.354.125.568.183,1.187.324,2.724,1.388,1.715,1.164-.119-.026.728.633,1.367,1.491l2.264,2.2c-.1.125-.9.012-3.412-2.344-.358.319,3.058,2.893,4.467,5.625a5.681,5.681,0,0,1-2.512-1.208c-.976-1.01-2.1-3.577-2.559-3.2-.056.022,1.856,3,2.8,4.763a8.023,8.023,0,0,1,.9,3.137c.151,4.755-.565,4.39-.564,4.39-1.114-3.747-1.635-8.1-3.26-10.106-.65-.8,1.737,3.512,1.839,7.4Zm-4.925,4.275c-.5.441-.831.6-.721.378a6.564,6.564,0,0,0,.281-.633c.023-.061.44.255.44.255Zm-.33-.59a6.977,6.977,0,0,0,.163-1.028,1.79,1.79,0,0,0,.034-.26c0-.042,1.089.9,1.15.943a5.648,5.648,0,0,1-.766.706c-.185-.159-.591-.323-.581-.361ZM36.11,39.2c-1.509,1.491-3.773.951-5.556,1.749-1.617.59-2.788,2.084-4.483,2.462-.5.161-.58.41-.263.4a2.774,2.774,0,0,0,2.873.242c.552-.278,2.266-1.233,2.556-1.288a13.676,13.676,0,0,1-2.223,2.14,7.971,7.971,0,0,1-4.638.624c-.914-.177-1.617.666-1.385.646a1.254,1.254,0,0,1,1.368.368c.6.469,1.466,1.054,2.212.183a1.781,1.781,0,0,1,2.545.225c-1.184-.062-1.067,2.067-3.309,1.817-.831-.006-2.665-1.9-3.187-1.318-.928,1.042,1.991,2.031.727,3.341-1.141,1.183-2.505-.943-2.505-.943.712.3,2.027.491,1.448-.666a3.233,3.233,0,0,1-.667-1.724c-.1-.423-2.713,3.364-4.441,1.653a13.663,13.663,0,0,0-3.3-2.708c3.3-.281,3.8,1.04,3.96,1.252,1.055,1.423,2.03-.022,2.255-.276.343-.391.83-.93.657-1.011a4.686,4.686,0,0,0-3.833-.235c2.338-3.214,4.157-.2,4.156-.2.257.16-.065-1.906-2.377-2.02-1.445-.071-2.716,1.229-3.712,1.228a6.531,6.531,0,0,1-3.842-3.132c1.428,1.068,3.251,1.682,4.386,1,2.135-1.272,4.825.647,4.953.418-.6-.467-1.956-2.288-5.622-1.25-1.422.816-2.022-.606-2.895-.63A2.8,2.8,0,0,1,15,40.942c.123,0-.62-.611-1.141-.666a24.533,24.533,0,0,1-6.618-1.535c-.021,0,.338-.817,2.079-.228,0,0-1.561-.956-1.548-2.185.05-.757.417-1.568-.163-2.2,2.352-.1.682,3.183,2.333,4.028a1.129,1.129,0,0,1,.248-1.4,2.627,2.627,0,0,0,1.771,1.617,1.3,1.3,0,0,0,.31-.371,5.452,5.452,0,0,1-.536-3.6l.025-.013c.134.006.36.471.519.813.343.737.334,1.8,1.018,2.673a6.2,6.2,0,0,0,.952,1.2,2.351,2.351,0,0,0,.015-1.085,2.263,2.263,0,0,1,.526-2.394c.445,1.286,1.051.913,1.133,1.53a3.16,3.16,0,0,1-.012,1.389c.045.913.875,1.171,1.612,1.755,1.662.9,2.766,1.393,3.489,2.552.353-1.955-4.922-2.346-4.242-6.117-.07-1.506.188-1.632-.88-2.552,2.117.062,3.27,3.536,3.385,4.171.212,1.165.92,1.226,1.891,2.745.14.051-1.737-4.049.5-7.558a5.7,5.7,0,0,1,.4,3.019,5,5,0,0,0,.024,1.968A4.157,4.157,0,0,1,23.6,35.735c.1.8.869,2.048.139,3.382-.887,1.623-.952,1.039-.965,3.036a8.4,8.4,0,0,1,.919-2.138c1.287-1.609.368-2.475,1.624-3.869.1.7.278.421.353,1.042.168,1.394-1.287,2.919-.966,2.873.371-.053.966-.375,1.165-1.433,0,0,.536.966.046,1.287a1.718,1.718,0,0,0-.935,1.916c.713-.851,1.686-1.793,1.517-3,.081-.731.873-1.027,1.031-2.725a1.159,1.159,0,0,1,.589-.773c-.123.953.618,1.94-.225,3.107.192.1.905-.91,1.947-.541-2.091.377-1.481,2.642-3.083,3.691-.483.316-.4.671-.545.711,1.43-.081,2.533-1.785,2.724-1.914,1.438-.973,1.753-1.122,2.327-2.7a2.842,2.842,0,0,1,.859-1.672,5.22,5.22,0,0,1-.28,2.805c-.257.761-1.161,1.42-.97,1.42,3.855-1.7,3.806-2.844,4.728-4.062a4.829,4.829,0,0,1,2.161-1.348c-.126.254-.659.681-.684,1.143a3.882,3.882,0,0,1-.752,2.054c.24.3.7-.561,1.17-.13-.622.207-.9.9-1.383,1.307Zm.644-.226a8.178,8.178,0,0,1-1.292,3.131c-.473.685-.665-.648-.258-1.938a3.839,3.839,0,0,0,1.55-1.193ZM33.819,10.488a1.405,1.405,0,0,0-.4-.068c-.118,0-.181.168-.034.207a2.241,2.241,0,0,0,.436.065c.115.011.078-.169-.006-.2Zm-.438.539a2.272,2.272,0,0,0,.434.065c.108.014.073-.168-.011-.2a1.51,1.51,0,0,0-.387-.069c-.125,0-.183.161-.036.206Zm0,2.455a3.572,3.572,0,0,0-.521-.436,3.743,3.743,0,0,1-.516.355,3.588,3.588,0,0,0-.5-.492c-.14.1-.546.467-.717.564.247.007.615.088.629.318.008.186-.014,1.348,0,1.56a2.24,2.24,0,0,0,.549,0c.011-.165.007-1.5.011-1.667a1.4,1.4,0,0,0,.2-.12,4.76,4.76,0,0,0,.494.441c.1-.079.371-.314.489-.425s-.01-.2-.118-.1ZM32.7,11.531a2.192,2.192,0,0,0,.335-.981A1.283,1.283,0,0,0,32.216,9.4a1.648,1.648,0,0,0-1.18,1.491c-.014.392.32,1.2,1.008,1.2a5.007,5.007,0,0,1,.659-.567Zm-.435.152a2.058,2.058,0,0,1-.729-.725A.807.807,0,0,1,31.8,9.9c.321.118.7.434.728.723a1.52,1.52,0,0,1-.264,1.065ZM32.25,8.7l.515-.564a2.787,2.787,0,0,1-.365-.347,10.952,10.952,0,0,1,.05-1.308,1.087,1.087,0,0,0-.838-.368c-.314.048-.636.45-.738.585a.239.239,0,0,0,0,.291,2.214,2.214,0,0,0,.229.154.3.3,0,0,0-.042-.024,1.365,1.365,0,0,0-.355.807,1.42,1.42,0,0,0,.412.813,1.956,1.956,0,0,1,.846-.453.648.648,0,0,0,.286.414Zm-.311-1.3A4.289,4.289,0,0,1,31,6.921c-.048-.038-.053-.06.006-.155.116-.171.248-.322.34-.315s.588.273.572.416a3.815,3.815,0,0,1,.019.53Zm0,.765a1.055,1.055,0,0,0-.417.123.852.852,0,0,1-.234-1.035c-.036-.022-.075-.041-.11-.064a4.292,4.292,0,0,0,.756.33c0,.194-.008.368-.008.432a1.527,1.527,0,0,0,.013.214ZM30.46,5.842a6.216,6.216,0,0,1-.958-.029.851.851,0,0,1,.065-.682c.07-.148-.065-.209-.118-.061a2.181,2.181,0,0,1-.884.891c-.218.085.266.286.233.277a6.7,6.7,0,0,0,.191,1.685c.072.194.293.51.445.414.1-.062.311-.485.379-.539.117-.1,0-.259-.1-.16s-.2-.054-.232-.153A7.056,7.056,0,0,1,29.4,6.17s.964-.117,1.06-.117c.066,0,.069-.211,0-.211Zm-2.649,2.2.4-.518A.844.844,0,0,1,27.6,7.2l.009-1.285L27.2,5.5l-.139.016-.638.56c-.066.1.106.1.191-.019l.463.266L27.1,7.569a1.135,1.135,0,0,0,.342.477Zm-.345-2.853L27.69,5V4.687l-.3-.293-.3.255.008.36.185.184Zm-1.022-.4a5.827,5.827,0,0,0-.941.059c-.205.031-.205.131-.035.151s.2.054.292.282A4.814,4.814,0,0,1,25.331,6.8a7.059,7.059,0,0,1-.552-1.26c0-.092.191-.185.273-.207.16-.05.157-.16.035-.183-.338-.048-1.531-.153-1.742-.18-.152-.013-.222.164-.037.164s.39-.052.6.254a14.544,14.544,0,0,1,1.177,2.655c.089-.144.844-2.331.887-2.563a.694.694,0,0,1,.435-.513c.229-.062.208-.159.038-.174Zm-3.579,5.287c.01.91.371.987.785,1.225a2.3,2.3,0,0,0,1.544.047c.187-.054.288-.066.282.1,0,.1.141.079.141,0s.007-.838.007-.922-.138-.081-.138,0a.46.46,0,0,1-.125.347,1.025,1.025,0,0,1-1.644-.132c-.156-.209-.3-.489-.117-.542a5.594,5.594,0,0,1,1.087.089,4.849,4.849,0,0,1,.779.1c.056.042.14.094.14-.015s0-.457,0-.566-.082-.054-.143-.017a6.174,6.174,0,0,1-.808.17A3.782,3.782,0,0,1,23.61,10c-.177-.059-.118-.416.04-.621a1.1,1.1,0,0,1,1.727-.059.477.477,0,0,1,.116.35c0,.08.134.089.134,0s.011-1.007.011-1.081-.135-.1-.135,0c0,.067-.148.106-.294.067A2.819,2.819,0,0,0,23.7,8.9a1.524,1.524,0,0,0-.838,1.18Zm.16,1.615c.011.258.105,2.484.077,2.793-.017.177.219.363.436.511a3.84,3.84,0,0,1,.522-.6c.112-.091.035-.151-.051-.117-.171.079-.342.017-.359-.18s-.016-2.112,0-2.388c-.132,0-.5-.007-.625-.019Zm1.836,1.819a1.324,1.324,0,0,0-.406.768,1,1,0,0,0,.294.682,3.374,3.374,0,0,1,.888-.62c.055.209.2.241.378.373.105-.114.487-.583.571-.665s.036-.163-.084-.08-.2.031-.4-.185a10.361,10.361,0,0,1,.033-1.127c-.183-.2-.352-.466-.568-.446-.315.026-.715.575-.814.717a.726.726,0,0,0,.063.545c.021.019.031.021.049.038Zm.22.16c.176.1.264.037.536.007,0,.172-.005.327-.006.409a3.2,3.2,0,0,1-.438.245c-.135-.111-.332-.206-.092-.661Zm-.144-.79c.115-.175.187-.209.279-.209s.4.225.385.373a4.093,4.093,0,0,1,.018.5.709.709,0,0,1-.675-.17.778.778,0,0,1-.007-.494Zm1.927-.353c-.2.1.272.29.24.282a4.765,4.765,0,0,0,.07,1.7.522.522,0,0,0,.549.216c.167-.067.381-.4.444-.456.125-.093.019-.192-.085-.1a.336.336,0,0,1-.418-.069,7.324,7.324,0,0,1-.016-1.3s.335-.007.425,0c.07,0,.075-.213.006-.213-.122,0-.393-.027-.409-.075a1.247,1.247,0,0,1,.079-.614c.072-.148-.065-.212-.119-.068a1.894,1.894,0,0,1-.766.7Zm.1-2.446a1.735,1.735,0,0,1-.533,1.286c.5-.129.564-.427.836-.777a2.288,2.288,0,0,0,.636.609,7.487,7.487,0,0,0,.641-.648,1.816,1.816,0,0,1-1-.7.461.461,0,0,1,.027-.532c.1.131.789.448,1.1-.082a1.547,1.547,0,0,1-.749-.526,6.261,6.261,0,0,1-.565.511.739.739,0,0,0-.545-.419,5.375,5.375,0,0,1-.85.6c-.075.036-.046.2.059.157s.263-.168.454-.258a.808.808,0,0,1,.493.771Zm2.387.082a.9.9,0,0,1,.377-.528c.141.156.282.333.494.333a.707.707,0,0,0,.489-.18c-.171-.137-.56-.547-.638-.624-.2.109-1.052.553-1.124,1.066a1.336,1.336,0,0,0,.467,1.322.656.656,0,0,0,.641.211c.153-.106.713-.638.775-.7s-.025-.125-.094-.058-.043.091-.135.105a1.31,1.31,0,0,1-.7-.037.92.92,0,0,1-.554-.905Zm-.418,2.414c-.127.128-.347.276-.554.506a.416.416,0,0,1,.4.212,5.561,5.561,0,0,1,.025,1.114c.013.256.169.311.372.524a4.763,4.763,0,0,0,.961-.42c-.017.211.25.447.407.494.105-.116.22-.178.375-.323-.151-.1-.131-.115-.188-.315a10.792,10.792,0,0,1,.016-1.242,2.4,2.4,0,0,0-.518-.55c-.143.13-.335.3-.56.54.168-.022.5.045.514.186a5.644,5.644,0,0,1,0,.887c-.038.311-.875.169-.886-.041s.043-.834.047-1.128a1.418,1.418,0,0,0-.407-.444Zm-5.556,7.528v-.03a6.39,6.39,0,0,1-1.306-.576,1.251,1.251,0,0,0-1.262.316c0,.165.174.25.669-.062a.554.554,0,0,0,.053.815,1.7,1.7,0,0,1-.538-.163c-.03.163.193.222.3.293.821.337,1.362-.453,2.084-.593Zm-1.384.418s.218-.236.217-.4a.579.579,0,0,0-.217-.4,4.556,4.556,0,0,1,.785.406l-.785.4Zm-4.5-6.231.236-.26c-.266-.05-.142-.047-.282-.176l-.009-1.079-.345-.507-.13.019-.541.5c-.143.125-.017.186.15.047l.357.185.009,1.144c.03.141.155.173.33.353l.225-.23Zm.117-3.757a1.038,1.038,0,0,0,.933.707,5.165,5.165,0,0,1,.369-.572c.144-.191,0-.306-.1-.086-.078.17-.494-.015-.644-.16-.2-.189-.329-.683-.167-.857s.4-.095.7-.1c.2-.009.24-.192.274-.286-.1-.045-.239-.126-.427-.24a7.59,7.59,0,0,0-.623.485,1.09,1.09,0,0,0-.31,1.113Zm.78,2.854a1,1,0,0,0-.338.7.682.682,0,0,0,.37.653,2.308,2.308,0,0,1,.847-.448,2.907,2.907,0,0,0,.5.4,6.337,6.337,0,0,1,.473-.429c.078-.08,0-.192-.083-.087-.063.1-.272.027-.332-.072,0-.113-.109-1.312-.061-1.368-.173-.193-.471-.628-.672-.606a1.71,1.71,0,0,0-.823.583,1.079,1.079,0,0,0,.078.644.317.317,0,0,1,.036.028Zm.768.1a.891.891,0,0,1-.65-.275.545.545,0,0,1-.037-.4c.106-.168.106-.221.2-.219.072,0,.516.268.493.411a2.816,2.816,0,0,1,0,.484Zm-.583.04a.706.706,0,0,0,.573.094c-.011.138-.02.264-.02.321a.49.49,0,0,0,.042.161,3.975,3.975,0,0,0-.429.14c-.117-.1-.549-.4-.166-.716Zm1.663-2.224.241-.26c-.271-.051-.271-.033-.415-.163l.011-1.249L19.834,9.3l-.126.017-.544.5c-.146.131-.015.194.148.049l.28.171L19.6,11.21c.028.141.152.19.325.368l.3-.262Zm-.425-4.374c-.112-.007-.281.2.372.265.1.012.238-.228-.372-.265Zm.008-.391c-.108-.006-.277.292.375.267.1,0,.177-.235-.375-.267Zm.125,1.964-.279-.29-.282.253.006.349L19.558,9h.174l.209-.188v-.3ZM19.372,5.84a1.427,1.427,0,0,0-.855-.467,1.577,1.577,0,0,0-1.15.66c-.225.347.051.65.344.875-.188.161-.448.408-.689.634a1.848,1.848,0,0,0,.92.347,1.948,1.948,0,0,0,1.117-.446c.466-.368.3-.76-.17-1.036a.391.391,0,0,0-.134-.044,6.342,6.342,0,0,0,.617-.523ZM18.2,6.8a4.791,4.791,0,0,1,.487.243c.25.141.122.41-.148.534s-.763-.228-.839-.373c.1-.087.289-.236.5-.4Zm.494-.657-.285.23a.8.8,0,0,1-.229.012.706.706,0,0,1-.455-.353c-.112-.148.176-.271.318-.256a1.624,1.624,0,0,1,.651.367ZM16.761,7.162a.913.913,0,0,1-1.074-.524c.277-.283.748-.746,1.035-.982-.19-.175-.268-.464-.605-.489a1.334,1.334,0,0,0-1.1,1.211,1.238,1.238,0,0,0,1.29,1.312c.207,0,.466-.268.594-.332.275-.134.173-.268-.141-.2Zm-1.124-.689c-.173-.556-.108-.748.238-1.023a.942.942,0,0,0,.386.4c-.2.189-.5.533-.624.626Zm-.792-.5c.117-.115-.008-.2-.112-.1-.078-.093-.276-.3-.382-.422a4.278,4.278,0,0,1-.514.329c-.113-.129-.252-.129-.477-.306a3.714,3.714,0,0,0-.55.479c.262.076.46.092.477.317.009.183-.02,1.311,0,1.518a2.081,2.081,0,0,0,.511.006c.016-.161.008-1.576.008-1.733a1.125,1.125,0,0,0,.19-.118c.083.063.247.3.379.38a4.891,4.891,0,0,0,.474-.352ZM12.681,8.9a1.3,1.3,0,0,0-.856.675,1.069,1.069,0,0,0,.077.6c.038.035.069.058.1.085-.2.181-.379.336-.373.606a.753.753,0,0,0,.482.613.978.978,0,0,1,.6-.407.605.605,0,0,0,.2.464c.1-.108.49-.447.565-.523s.021-.172-.075-.078c-.058.053-.2-.026-.239-.094a11.929,11.929,0,0,1,.05-1.365c-.177-.192-.345-.6-.543-.575Zm.023,1.215c-.332.215-.437.208-.666-.05a.5.5,0,0,1-.051-.473c.1-.162.284-.325.37-.324a.736.736,0,0,1,.324.472,3.191,3.191,0,0,1,.023.375Zm0,.6c0,.064,0,.119,0,.178a.979.979,0,0,0-.226.076c-.122-.1-.7-.292-.32-.6.231.136.321.03.545-.109,0,.2,0,.38,0,.451ZM12.449,8.18a.425.425,0,0,1-.121-.24c0-.068.008-.79.008-.88s-.17-.076-.17,0a1.016,1.016,0,0,1-.1.524.757.757,0,0,1-1.343.09,1.474,1.474,0,0,1-.2-.716,1.5,1.5,0,0,1,.2-.693.771.771,0,0,1,1.348.105,3.479,3.479,0,0,1,.083.55c-.005.081.172.073.175-.012s.005-1.174.005-1.249-.142-.094-.145,0c-.008.171-.109.186-.241.144a1.825,1.825,0,0,0-1.229-.01,1.464,1.464,0,0,0-.775,1.145,1.088,1.088,0,0,0,.73,1.194A1.766,1.766,0,0,0,12,8.075c.181-.05.2.065.291.194.148.2.267.071.162-.089ZM10,9.427a1.224,1.224,0,0,0,.057,1.634.986.986,0,0,0,.963.28,2.466,2.466,0,0,1,.325-.5,1.067,1.067,0,0,1-.877-.2.988.988,0,0,1-.208-1.291c.284-.422.688.181.76.263a3.131,3.131,0,0,1,.414-.4c-.156-.207-.285-.4-.391-.525A2.409,2.409,0,0,0,10,9.427Zm.218,4.037c-.113.839.679,1.339,1.059,1.5a3.9,3.9,0,0,1,.482-.726c.145-.169-.015-.214-.145-.084-.176.192-.7.01-.837-.243.252-.19.911-.742,1.2-.977a2.159,2.159,0,0,1-.527-.872c-.256.172-1.1.527-1.23,1.4Zm.818-.91a1.928,1.928,0,0,0,.429.63,7.635,7.635,0,0,1-.784.6c-.238-.3-.366-.785.355-1.226Zm1.731-.3a6.8,6.8,0,0,1-.533.486.953.953,0,0,1,.317.51c.015.223.006,1.257.02,1.515.176,0,.145.019.447.007-.03-.175-.005-1.517-.005-1.709a2.052,2.052,0,0,1,.259-.221c.094.081.312.13.312.273a6.823,6.823,0,0,1-.007,1.017,1.007,1.007,0,0,0,.119.783,8.171,8.171,0,0,1,.652-.515c.094-.081.045-.143-.076-.11s-.153.054-.153-.029c0-.154-.061-.853-.071-1.3a.643.643,0,0,0-.36-.641c-.128.143-.414.322-.585.468-.129-.1-.193-.309-.336-.535Zm1.8-1.082a4.11,4.11,0,0,0,.324-.372c.115-.1.02-.193-.078-.1-.078.076-.283-.1-.292-.114a4.052,4.052,0,0,1-.119-1.125s.652-.08.737-.079c.065.005.073-.2,0-.206-.106,0-.6.069-.621.02a1.2,1.2,0,0,1,.069-.787c.077-.136,0-.268-.053-.129a2.406,2.406,0,0,1-.729.88c-.215.088-.191.138-.053.173.11.021.224.153.2.151a3.493,3.493,0,0,0,.091,1.449c.1.173.388.353.517.24Zm2.237.233a.886.886,0,0,1-.447.411,5.253,5.253,0,0,0,.455.369c.143-.158.273-.3.437-.46a.585.585,0,0,1-.445-.32Zm-1.025-.58c.207-.017.54.107.91.077.439-.032.784-.713.594-1.243-.176-.5-.738-.415-1.116-.536-.347-.094-.491-.313-.112-.562.446-.287,1,.174,1.052.271.081.147.149.144.149-.047.012-.416-.026-.18-.068-.573-.014-.14-.116-.152-.125-.017s-.176.1-.3.1a1.481,1.481,0,0,0-.82.118c-.2.119-.671.485-.41.924.153.256,1.05.464,1.273.612a.452.452,0,0,1,.06.7,1.221,1.221,0,0,1-1.1-.1.858.858,0,0,1-.234-.485c-.031-.193-.193-.177-.193,0a8.222,8.222,0,0,0,.074.92c.029.147.176.1.19-.013s.085-.134.182-.142Zm-.94,1.88c-.171.128.2.307.167.3a3.162,3.162,0,0,0,.117,1.335c.113.166.467.288.528.129a2.413,2.413,0,0,1,.387-.543c.112-.1.013-.188-.08-.091-.194.205-.3.11-.445-.026a2.033,2.033,0,0,1-.045-.836s.355-.052.441-.052c.066,0,.06-.205-.009-.205-.107,0-.424,0-.443-.046a5.03,5.03,0,0,1,.082-.822c.014-.157-.07-.207-.112-.06a3.094,3.094,0,0,1-.588.92Z" transform="translate(-0.37 0)"/></svg>